<svg width="0" height="0" class="hidden"><defs><symbol xmlns="http://www.w3.org/2000/svg" viewBox="0 0 14 14" id="cs-icon-404-page"><path d="M13.5 0H.5a.5.5 0 00-.5.5v13a.5.5 0 00.5.5h13a.5.5 0 00.5-.5V.5a.5.5 0 00-.5-.5zM13 1v12H1V1z"/><path d="M3.439 5.561a.5.5 0 00.707 0l.354-.354.354.354a.5.5 0 00.707-.707L5.207 4.5l.354-.354a.5.5 0 00-.707-.707l-.354.354-.354-.354a.5.5 0 00-.707.707l.354.354-.354.354a.5.5 0 000 .707zm5 0a.5.5 0 00.707 0l.354-.354.354.354a.5.5 0 00.707-.707l-.354-.354.354-.354a.5.5 0 10-.707-.707l-.354.354-.354-.354a.5.5 0 00-.707.707l.354.354-.354.354a.5.5 0 000 .707zM3.5 11h7a.5.5 0 000-1h-7a.5.5 0 000 1z"/></symbol><symbol xmlns="http://www.w3.org/2000/svg" viewBox="0 0 14 14" id="cs-icon-additional-css"><path d="M1 2a1 1 0 01-1 1v1a1.976 1.976 0 001.5-.69A1.925 1.925 0 002 2a1 1 0 011-1V0a1.976 1.976 0 00-1.5.69A1.925 1.925 0 001 2zm0 4a1.925 1.925 0 00.5 1.31A1.976 1.976 0 003 8V7a1 1 0 01-1-1 1.925 1.925 0 00-.5-1.31A1.976 1.976 0 000 4v1a1 1 0 011 1zm11 6a1 1 0 01-1 1v1a1.976 1.976 0 001.5-.69A1.925 1.925 0 0013 12a1 1 0 011-1v-1a1.976 1.976 0 00-1.5.69A1.925 1.925 0 0012 12zm1-4a1.925 1.925 0 00-.5-1.31A1.976 1.976 0 0011 6v1a1 1 0 011 1 1.925 1.925 0 00.5 1.31A1.976 1.976 0 0014 10V9a1 1 0 01-1-1zM9.5 2h-5a.5.5 0 000 1h5a.5.5 0 000-1zm0 3h-5a.5.5 0 000 1h5a.5.5 0 000-1zm0 6h-5a.5.5 0 000 1h5a.5.5 0 000-1zm0-3h-5a.5.5 0 000 1h5a.5.5 0 000-1z"/></symbol><symbol xmlns="http://www.w3.org/2000/svg" viewBox="0 0 14 14" id="cs-icon-blog-page"><path d="M13.5 0H.5a.5.5 0 00-.5.5v13a.5.5 0 00.5.5h13a.5.5 0 00.5-.5V.5a.5.5 0 00-.5-.5zM13 13H1V4h12zM1 3V1h12v2z"/><path d="M3.5 9h7a.5.5 0 000-1h-7a.5.5 0 000 1zm7 1h-7a.5.5 0 000 1h7a.5.5 0 000-1zm-7-3h3a.5.5 0 000-1h-3a.5.5 0 000 1z"/></symbol><symbol xmlns="http://www.w3.org/2000/svg" viewBox="0 0 14 14" id="cs-icon-cover-blog"><path d="M13.5 0H.5a.5.5 0 00-.5.5v13a.5.5 0 00.5.5h13a.5.5 0 00.5-.5V.5a.5.5 0 00-.5-.5zM13 13H1V7h12zM3.414 6L6 3.414 8.586 6zm6.581 0s-.007-.012-.012-.017L6.421 2.421a.6.6 0 00-.842 0L2.017 5.983c0 .005-.007.012-.012.017H1V1h12v5z"/><circle cx="11" cy="3" r="1"/><path d="M2 11.5a.5.5 0 00.5.5h9a.5.5 0 000-1h-9a.5.5 0 00-.5.5zm.5-1.5h4a.5.5 0 000-1h-4a.5.5 0 000 1z"/></symbol><symbol xmlns="http://www.w3.org/2000/svg" viewBox="0 0 14 14" id="cs-icon-cover-frontpage"><path d="M13.5 0H.5a.5.5 0 00-.5.5v13a.5.5 0 00.5.5h13a.5.5 0 00.5-.5V.5a.5.5 0 00-.5-.5zM13 13H1V7h12zM3.414 6L6 3.414 8.586 6zm6.579 0c-.008-.008-.011-.018-.019-.026L6.425 2.425a.6.6 0 00-.85 0L2.026 5.974c-.008.008-.011.018-.019.026H1V1h12v5z"/><circle cx="11" cy="3" r="1"/><path d="M2 11.5a.5.5 0 00.5.5h9a.5.5 0 000-1h-9a.5.5 0 00-.5.5zM4.5 9a.5.5 0 000 1h5a.5.5 0 000-1z"/></symbol><symbol xmlns="http://www.w3.org/2000/svg" viewBox="0 0 14 14" id="cs-icon-cover-pages"><path d="M7.5 9h-5a.5.5 0 000 1h5a.5.5 0 000-1zm0 2h-5a.5.5 0 000 1h5a.5.5 0 000-1z"/><path d="M13.5 0H.5a.5.5 0 00-.5.5v13a.5.5 0 00.5.5h9a1.207 1.207 0 00.854-.354l3.292-3.292A1.207 1.207 0 0014 9.5v-9a.5.5 0 00-.5-.5zM10 12.586V10h2.586zM13 9H9.5a.5.5 0 00-.5.5V13H1V7h12zM3.414 6L6 3.414 8.586 6zM13 3v3H9.993c-.008-.008-.011-.018-.019-.026L6.425 2.425a.6.6 0 00-.85 0L2.026 5.974c-.008.008-.011.018-.019.026H1V1h12z"/><circle cx="11" cy="3" r="1"/></symbol><symbol xmlns="http://www.w3.org/2000/svg" viewBox="0 0 14 14" id="cs-icon-cover-woocommerce"><path d="M3.5 5h5a.5.5 0 000-1h-5a.5.5 0 000 1zm0 2h5a.5.5 0 000-1h-5a.5.5 0 000 1z"/><circle cx="2" cy="13" r="1"/><circle cx="11" cy="13" r="1"/><path d="M13.68 2H2V.5a.5.5 0 00-.5-.5H.529A.519.519 0 000 .448.5.5 0 00.5 1H1v9.5a.5.5 0 00.5.5h9.971a.519.519 0 00.529-.449.5.5 0 00-.5-.551H2V9h7.679a.6.6 0 00.5-.267l3.634-5.451A1.125 1.125 0 0014 2.661V2.32a.32.32 0 00-.32-.32zM9.463 8H2V3h10.8z"/></symbol><symbol xmlns="http://www.w3.org/2000/svg" viewBox="0 0 14 14" id="cs-icon-export-import"><path d="M4.859 8.86a.5.5 0 01-.706 0l-4.007-4a.5.5 0 010-.706l4.007-4A.5.5 0 015.005.5v1H9.5a.5.5 0 110 1h-5A.5.5 0 014 2v-.3L1.2 4.5 4 7.3v-.31a.5.5 0 01.5-.5H9v-.951a.49.49 0 01.138-.4.5.5 0 01.706 0l4.007 4a.5.5 0 010 .706l-4.007 4a.5.5 0 01-.706 0 .491.491 0 01-.138-.4V12.5H4.5a.5.5 0 110-1h5a.5.5 0 01.5.5v.288L12.794 9.5 10 6.707v.284a.5.5 0 01-.5.5H5v1a.49.49 0 01-.141.369z"/></symbol><symbol xmlns="http://www.w3.org/2000/svg" viewBox="0 0 14 14" id="cs-icon-general-settings"><path d="M13.5 0H.5a.5.5 0 00-.5.5v13a.5.5 0 00.5.5h13a.5.5 0 00.5-.5V.5a.5.5 0 00-.5-.5zM13 1v12H1V1z"/><path d="M4.5 7a.5.5 0 00-.5.5v4a.5.5 0 001 0v-4a.5.5 0 00-.5-.5zm-2-1h4a.5.5 0 000-1H5V2.5a.5.5 0 00-1 0V5H2.5a.5.5 0 000 1zm7 1a.5.5 0 00.5-.5v-4a.5.5 0 00-1 0v4a.5.5 0 00.5.5zm-2 2H9v2.5a.5.5 0 001 0V9h1.5a.5.5 0 000-1h-4a.5.5 0 000 1z"/></symbol><symbol xmlns="http://www.w3.org/2000/svg" viewBox="0 0 14 14" id="cs-icon-footer"><path d="M13.5 0H.5a.5.5 0 00-.5.5v13a.5.5 0 00.5.5h13a.5.5 0 00.5-.5V.5a.5.5 0 00-.5-.5zM13 13H1V8h12zM1 7V1h12v6z"/><path d="M2.5 11h3a.5.5 0 000-1h-3a.5.5 0 000 1zm6 0h3a.5.5 0 000-1h-3a.5.5 0 000 1z"/></symbol><symbol xmlns="http://www.w3.org/2000/svg" viewBox="0 0 14 14" id="cs-icon-header-account"><path d="M13.5 0H.5a.5.5 0 00-.5.5v13a.5.5 0 00.5.5h13a.5.5 0 00.5-.5V.5a.5.5 0 00-.5-.5zM3 13v-2.5A2.5 2.5 0 015.5 8h3a2.5 2.5 0 012.5 2.5V13zm4-6a2 2 0 112-2 2 2 0 01-2 2zm5 3.5a3.51 3.51 0 00-2.835-3.432 3 3 0 10-4.33 0A3.51 3.51 0 002 10.5V13H1V1h12v12h-1z"/></symbol><symbol xmlns="http://www.w3.org/2000/svg" viewBox="0 0 14 14" id="cs-icon-header-general"><path d="M13.5 3H.5a.5.5 0 00-.5.5v6a.5.5 0 00.5.5h13a.5.5 0 00.5-.5v-6a.5.5 0 00-.5-.5zM13 4v5H1V4z"/><path d="M2.5 7h1a.5.5 0 000-1h-1a.5.5 0 000 1zm3 0h6a.5.5 0 000-1h-6a.5.5 0 000 1zm8-7H.5a.5.5 0 00-.5.5v1a.5.5 0 001 0V1h12v.5a.5.5 0 001 0v-1a.5.5 0 00-.5-.5zm0 11a.5.5 0 00-.5.5V13H1v-1.5a.5.5 0 00-1 0v2a.5.5 0 00.5.5h13a.5.5 0 00.5-.5v-2a.5.5 0 00-.5-.5z"/></symbol><symbol xmlns="http://www.w3.org/2000/svg" viewBox="0 0 14 14" id="cs-icon-header-search"><path d="M10.148 9.441a4.042 4.042 0 10-.707.707l1.705 1.706a.5.5 0 00.708-.708zM7 10a3 3 0 113-3 3 3 0 01-3 3z"/><path d="M13.5 0H.5a.5.5 0 00-.5.5v13a.5.5 0 00.5.5h6a.5.5 0 000-1H1V1h12v5.5a.5.5 0 001 0v-6a.5.5 0 00-.5-.5z"/></symbol><symbol xmlns="http://www.w3.org/2000/svg" viewBox="0 0 14 14" id="cs-icon-blog-posts"><path d="M.5 6h4a.5.5 0 00.5-.5v-5a.5.5 0 00-.5-.5h-4a.5.5 0 00-.5.5v5a.5.5 0 00.5.5zM1 5V1h3v4zm5.5-3h3a.5.5 0 000-1h-3a.5.5 0 000 1zm0 3h7a.5.5 0 000-1h-7a.5.5 0 000 1zm7 2H.5a.5.5 0 000 1h13a.5.5 0 000-1zm0 3H.5a.5.5 0 000 1h13a.5.5 0 000-1zm0 3H.5a.5.5 0 000 1h13a.5.5 0 000-1z"/></symbol><symbol xmlns="http://www.w3.org/2000/svg" viewBox="0 0 14 14" id="cs-icon-footer-general-settings"><path d="M13.5 0H.5a.5.5 0 00-.5.5v2a.5.5 0 001 0V1h12v1.5a.5.5 0 001 0v-2a.5.5 0 00-.5-.5zm0 4H.5a.5.5 0 00-.5.5v6a.5.5 0 00.5.5h13a.5.5 0 00.5-.5v-6a.5.5 0 00-.5-.5zM13 5v5H1V5zm.5 7a.5.5 0 00-.5.5v.5H1v-.5a.5.5 0 00-1 0v1a.5.5 0 00.5.5h13a.5.5 0 00.5-.5v-1a.5.5 0 00-.5-.5z"/><path d="M2.5 8h3a.5.5 0 000-1h-3a.5.5 0 000 1zm6 0h3a.5.5 0 000-1h-3a.5.5 0 000 1z"/></symbol><symbol xmlns="http://www.w3.org/2000/svg" viewBox="0 0 14 14" id="cs-icon-navigation"><path d="M13.5 0H.5a.5.5 0 00-.5.5v13a.5.5 0 00.5.5h13a.5.5 0 00.5-.5V.5a.5.5 0 00-.5-.5zM13 1v12H1V1z"/><path d="M2.5 5h1a.5.5 0 000-1h-1a.5.5 0 000 1zm3 0h6a.5.5 0 000-1h-6a.5.5 0 000 1zm3 4h-6a.5.5 0 000 1h6a.5.5 0 000-1zm3 0h-1a.5.5 0 000 1h1a.5.5 0 000-1z"/></symbol><symbol xmlns="http://www.w3.org/2000/svg" viewBox="0 0 14 14" id="cs-icon-homepage-settings"><path d="M7.249.087a.4.4 0 00-.5 0L0 5.438V13.5a.5.5 0 00.5.5h4a.5.5 0 000-1H1V5.92l6-4.755 6 4.755V13H9.5a.5.5 0 000 1h4a.5.5 0 00.5-.5V5.462z"/><path d="M4.5 8h5a.5.5 0 000-1h-5a.5.5 0 000 1zm0 3h5a.5.5 0 000-1h-5a.5.5 0 000 1z"/></symbol><symbol xmlns="http://www.w3.org/2000/svg" viewBox="0 0 14 14" id="cs-icon-menus"><path d="M13.5 0H.5a.5.5 0 00-.5.5v13a.5.5 0 00.5.5h13a.5.5 0 00.5-.5V.5a.5.5 0 00-.5-.5zM13 1v12H1V1z"/><path d="M2.5 5h9a.5.5 0 000-1h-9a.5.5 0 000 1zm9 4h-9a.5.5 0 000 1h9a.5.5 0 000-1z"/></symbol><symbol xmlns="http://www.w3.org/2000/svg" viewBox="0 0 14 14" id="cs-icon-page-cover"><path d="M13.5 0H.5a.5.5 0 00-.5.5v13a.5.5 0 00.5.5h13a.5.5 0 00.5-.5V.5a.5.5 0 00-.5-.5zM13 13H1V7h12zM3.414 6L6 3.414 8.586 6zm6.578 0c-.008-.009-.012-.02-.021-.029L6.426 2.426a.6.6 0 00-.852 0L2.029 5.971c-.009.009-.013.02-.021.029H1V1h12v5z"/><circle cx="11" cy="3" r="1"/></symbol><symbol xmlns="http://www.w3.org/2000/svg" viewBox="0 0 14 14" id="cs-icon-header"><path d="M13.5 0H.5a.5.5 0 00-.5.5v13a.5.5 0 00.5.5h13a.5.5 0 00.5-.5V.5a.5.5 0 00-.5-.5zM13 13H1V7h12zM1 6V1h12v5z"/><path d="M3.5 3h-1a.5.5 0 000 1h1a.5.5 0 000-1zm8 0h-6a.5.5 0 000 1h6a.5.5 0 000-1z"/></symbol><symbol xmlns="http://www.w3.org/2000/svg" viewBox="0 0 14 14" id="cs-icon-scroll-to-top-button"><path d="M13.5 0H.5a.5.5 0 00-.5.5v13a.5.5 0 00.5.5h13a.5.5 0 00.5-.5V.5a.5.5 0 00-.5-.5zM13 1v12H1V1z"/><path d="M2.4 8.3l2.121 2.122a.5.5 0 00.707 0L7 8.657l1.768 1.768a.5.5 0 00.707 0L11.6 8.3a.5.5 0 000-.707L7.354 3.354a.5.5 0 00-.708 0L2.4 7.6a.5.5 0 000 .7zM7 4.414l3.536 3.536-1.415 1.414L7.354 7.6a.5.5 0 00-.708 0L4.879 9.364 3.464 7.95z"/></symbol><symbol xmlns="http://www.w3.org/2000/svg" viewBox="0 0 14.001 14.001" id="cs-icon-search-page"><path d="M7.5 3h-4a.5.5 0 000 1h4a.5.5 0 000-1zm0 2h-4a.5.5 0 000 1h4a.5.5 0 000-1z"/><path d="M6.5 13H1V1h12v5.5a.5.5 0 001 0v-6a.5.5 0 00-.5-.5H.5a.5.5 0 00-.5.5v13a.5.5 0 00.5.5h6a.5.5 0 000-1z"/><path d="M13.854 13.147L12.2 11.49a3.022 3.022 0 10-.707.707l1.657 1.657a.5.5 0 00.707-.707zm-4.1-1.389a2 2 0 111.414-.586 1.985 1.985 0 01-1.41.586z"/></symbol><symbol xmlns="http://www.w3.org/2000/svg" viewBox="0 0 14 14" id="cs-icon-site-global-sections"><path d="M7 2a5 5 0 105 5 5 5 0 00-5-5zm0 1a3.987 3.987 0 013.444 2H3.556A3.987 3.987 0 017 3zm0 8a3.987 3.987 0 01-3.444-2h6.888A3.987 3.987 0 017 11zm3.858-3H3.142A3.939 3.939 0 013 7a3.939 3.939 0 01.142-1h7.716A3.939 3.939 0 0111 7a3.939 3.939 0 01-.142 1z"/><path d="M7 13a6 6 0 01-6-6 .5.5 0 00-.5-.5.5.5 0 00-.49.4.5.5 0 000 .2 6.962 6.962 0 006.89 6.89.505.505 0 00.2 0 .5.5 0 00.4-.49.5.5 0 00-.5-.5zm6.99-6.1A6.962 6.962 0 007.1.01a.5.5 0 00-.2 0 .5.5 0 00-.4.49.5.5 0 00.5.5 6 6 0 016 6 .5.5 0 00.5.5.5.5 0 00.49-.4.5.5 0 000-.2zm-2.747 4.343a.5.5 0 10.707 0 .5.5 0 00-.707 0zM2.757 2.757a.5.5 0 10-.707 0 .5.5 0 00.707 0z"/></symbol><symbol xmlns="http://www.w3.org/2000/svg" viewBox="0 0 14 14" id="cs-icon-site-layout"><path d="M13.5 0H.5a.5.5 0 00-.5.5v13a.5.5 0 00.5.5h13a.5.5 0 00.5-.5V.5a.5.5 0 00-.5-.5zM1 13V1h2v12zm3 0V1h6v12zm7-12h2v12h-2z"/></symbol><symbol xmlns="http://www.w3.org/2000/svg" viewBox="0 0 14 14" id="cs-icon-site-performance"><path d="M7 0a7 7 0 00-4.95 11.95.5.5 0 00.71 0l.37-.37.33-.34a.495.495 0 00-.7-.7l-.34.33A5.9 5.9 0 011.045 7.5H1.5a.5.5 0 000-1h-.475a5.97 5.97 0 011.4-3.371l.335.335a.5.5 0 00.707-.707l-.335-.335A5.97 5.97 0 016.5 1.025V1.5a.5.5 0 001 0v-.475a5.97 5.97 0 013.371 1.4l-.335.335a.5.5 0 00.707.707l.335-.335a5.97 5.97 0 011.4 3.371H12.5a.5.5 0 000 1h.455a5.9 5.9 0 01-1.375 3.37l-.34-.33a.495.495 0 00-.7.7l.33.34.37.37a.508.508 0 00.36.15.5.5 0 00.35-.15A7 7 0 007 0z"/><path d="M10.464 5a.5.5 0 00-.683-.183L8.426 5.6a2.106 2.106 0 10.494.869l1.361-.785A.5.5 0 0010.464 5zM7 8a1 1 0 111-1 1 1 0 01-1 1zm3.5 5h-7a.5.5 0 000 1h7a.5.5 0 000-1z"/></symbol><symbol xmlns="http://www.w3.org/2000/svg" viewBox="0 0 14 14" id="cs-icon-site-preloader"><path d="M13.5 0H.5a.5.5 0 00-.5.5v13a.5.5 0 00.5.5h13a.5.5 0 00.5-.5V.5a.5.5 0 00-.5-.5zM13 13H1V1h12z"/><path d="M6.532 6.415a.6.6 0 00.936 0l2.753-3.442A.6.6 0 009.754 2H4.246a.6.6 0 00-.467.973zM8.919 3L7 5.4 5.081 3zm-4.678 9H9.76a.6.6 0 00.465-.969L7.466 7.582a.6.6 0 00-.932 0l-2.759 3.449a.6.6 0 00.466.969zM7 8.6L8.919 11H5.081z"/></symbol><symbol xmlns="http://www.w3.org/2000/svg" viewBox="0 0 14 14" id="cs-icon-site-style"><path d="M13.5 3H12V.5a.5.5 0 00-.5-.5H.5a.5.5 0 00-.5.5v5a.5.5 0 00.5.5h11a.5.5 0 00.5-.5V4h1v3H5.5a.5.5 0 00-.5.5V9h-.5a.5.5 0 00-.5.5v4a.5.5 0 00.5.5h2a.5.5 0 00.5-.5v-4a.5.5 0 00-.5-.5H6V8h7.5a.5.5 0 00.5-.5v-4a.5.5 0 00-.5-.5zm-10-1a.5.5 0 00.5-.5V1h1v1.5a.5.5 0 001 0V1h5v4H1V1h2v.5a.5.5 0 00.5.5zM6 10v3H5v-3z"/></symbol><symbol xmlns="http://www.w3.org/2000/svg" viewBox="0 0 14 14" id="cs-icon-site-typography"><path d="M13.5 0H.5a.5.5 0 00-.5.5v13a.5.5 0 00.5.5h13a.5.5 0 00.5-.5V.5a.5.5 0 00-.5-.5zM13 1v12H1V1z"/><path d="M2.5 6h2a.5.5 0 00.5-.5V5h1v4H4.5a.5.5 0 00-.5.5v2a.5.5 0 00.5.5h5a.5.5 0 00.5-.5v-2a.5.5 0 00-.5-.5h-1a.5.5 0 000 1H9v1H5v-1h1.5a.5.5 0 00.5-.5v-5a.5.5 0 00-.5-.5h-2a.5.5 0 00-.5.5V5H3V3h8v2h-1v-.5a.5.5 0 00-.5-.5h-1a.5.5 0 000 1H9v.5a.5.5 0 00.5.5h2a.5.5 0 00.5-.5v-3a.5.5 0 00-.5-.5h-9a.5.5 0 00-.5.5v3a.5.5 0 00.5.5z"/></symbol><symbol xmlns="http://www.w3.org/2000/svg" viewBox="0 0 14 14" id="cs-icon-widgets"><path d="M5.5 0h-5a.5.5 0 00-.5.5v5a.5.5 0 00.5.5h5a.5.5 0 00.5-.5v-5a.5.5 0 00-.5-.5zM5 1v4H1V1zm.5 7h-5a.5.5 0 00-.5.5v5a.5.5 0 00.5.5h5a.5.5 0 00.5-.5v-5a.5.5 0 00-.5-.5zM5 9v4H1V9zm8.5-1h-5a.5.5 0 00-.5.5v5a.5.5 0 00.5.5h5a.5.5 0 00.5-.5v-5a.5.5 0 00-.5-.5zM13 9v4H9V9zm.5-9h-5a.5.5 0 00-.5.5v5a.5.5 0 00.5.5h5a.5.5 0 00.5-.5v-5a.5.5 0 00-.5-.5zM13 1v4H9V1z"/></symbol><symbol xmlns="http://www.w3.org/2000/svg" viewBox="0 0 14 14" id="cs-icon-sticky-social-icons"><path d="M13.5 0H.5a.5.5 0 00-.5.5v13a.5.5 0 00.5.5h13a.5.5 0 00.5-.5V.5a.5.5 0 00-.5-.5zM13 1v12H1V1z"/><path d="M4 11.5A2 2 0 005.928 10h2.144a2 2 0 100-1H5.929a2 2 0 00-.389-.77l1.72-2.37A2.028 2.028 0 008 6a2 2 0 10-2-2 1.978 1.978 0 00.46 1.27L4.74 7.64A2.028 2.028 0 004 7.5a2 2 0 000 4zM7 4a1 1 0 111 1 .375.375 0 01-.11-.01 1 1 0 01-.8-.58A.946.946 0 017 4zm3 4.5a1 1 0 11-1 1 1 1 0 011-1zm-6 0a.375.375 0 01.11.01 1 1 0 01.8.58.946.946 0 01.09.41 1 1 0 11-1-1z"/></symbol><symbol xmlns="http://www.w3.org/2000/svg" viewBox="0 0 14 14" id="cs-icon-wishlist"><path d="M12 5.65a1.964 1.964 0 00-1.492.68 2.01 2.01 0 00-1.512-.68 2.2 2.2 0 00-.6.086 1.9 1.9 0 00-1.38 1.577A1.989 1.989 0 007.58 9.07l2.506 2.5a.6.6 0 00.855 0l2.478-2.5A2.007 2.007 0 0012 5.65zm.71 2.717l-2.2 2.215-2.231-2.229a1 1 0 01.439-1.669 1.137 1.137 0 01.275-.034 1 1 0 01.76.341l.762.864.75-.874A.962.962 0 0112 6.65a1.008 1.008 0 01.71 1.717z"/><path d="M10.516 13H1V1h9.014v3.5a.5.5 0 001 0v-4a.5.5 0 00-.5-.5H.5a.5.5 0 00-.5.5v13a.5.5 0 00.5.5h10.016a.5.5 0 000-1z"/><path d="M6.51 5H2.5a.5.5 0 100 1h4.01a.5.5 0 000-1zM2.5 3h2a.5.5 0 000-1h-2a.5.5 0 100 1zm0 5h3a.5.5 0 100-1h-3a.5.5 0 100 1zm0 2h3a.5.5 0 100-1h-3a.5.5 0 100 1zm0 2h5.011a.5.5 0 100-1H2.5a.5.5 0 100 1z"/></symbol><symbol xmlns="http://www.w3.org/2000/svg" viewBox="0 0 14 14" id="cs-icon-woo-advanced-options"><circle cx="3" cy="7" r="1"/><circle cx="7" cy="7" r="1"/><circle cx="11" cy="7" r="1"/><path d="M13.5 0H.5a.5.5 0 00-.5.5v13a.5.5 0 00.5.5h13a.5.5 0 00.5-.5V.5a.5.5 0 00-.5-.5zM13 1v12H1V1z"/></symbol><symbol xmlns="http://www.w3.org/2000/svg" viewBox="0 0 14 14" id="cs-icon-woo-brands"><path d="M6.575 12.232a.6.6 0 00.85 0l4.4-4.4A.6.6 0 0012 7.408V2.6a.6.6 0 00-.6-.6H6.592a.6.6 0 00-.425.176l-4.4 4.4a.6.6 0 000 .85zM6.757 3H11v4.243l-4 4L2.757 7z"/><path d="M9.707 5.707a1 1 0 10-1.414 0 1 1 0 001.414 0z"/><path d="M13.5 0H.5a.5.5 0 00-.5.5v13a.5.5 0 00.5.5h13a.5.5 0 00.5-.5V.5a.5.5 0 00-.5-.5zM13 13H1V1h12z"/><path d="M7.66 9.173a.5.5 0 000-.707L5.539 6.344a.5.5 0 10-.707.707l2.121 2.122a.5.5 0 00.707 0z"/></symbol><symbol xmlns="http://www.w3.org/2000/svg" viewBox="0 0 14 14" id="cs-icon-woo-cart-page"><path d="M13.5 3h-2.641a3.982 3.982 0 00-7.718 0H.5a.5.5 0 00-.5.5v10a.5.5 0 00.5.5h13a.5.5 0 00.5-.5v-10a.5.5 0 00-.5-.5zM7 1a3.006 3.006 0 012.829 2H4.171A3.006 3.006 0 017 1zm6 12H1v-1h12zM1 11V4h12v7z"/><path d="M10.5 8h-7a.5.5 0 000 1h7a.5.5 0 000-1zm0-2h-7a.5.5 0 000 1h7a.5.5 0 000-1z"/></symbol><symbol xmlns="http://www.w3.org/2000/svg" viewBox="0 0 14 14" id="cs-icon-woo-catalog-misc"><path d="M13.5 0h-10a.5.5 0 00-.5.5v1a.5.5 0 001 0V1h9v9h-.5a.5.5 0 000 1h1a.5.5 0 00.5-.5V.5a.5.5 0 00-.5-.5z"/><path d="M10.5 3H.5a.5.5 0 00-.5.5v10a.5.5 0 00.5.5h10a.5.5 0 00.5-.5v-10a.5.5 0 00-.5-.5zM10 4v9H1V4z"/><path d="M7.5 10h-4a.5.5 0 000 1h4a.5.5 0 000-1zm-4-3h4a.5.5 0 000-1h-4a.5.5 0 000 1z"/></symbol><symbol xmlns="http://www.w3.org/2000/svg" viewBox="0 0 14 14" id="cs-icon-woo-catalog-product-components"><path d="M13.5 0H.5a.5.5 0 00-.5.5v4a.5.5 0 001 0V1h3v3.883a.6.6 0 00.6.6.592.592 0 00.33-.1l1.738-1.162a.6.6 0 01.664 0L9.07 5.38a.592.592 0 00.33.1.6.6 0 00.6-.6V1h3v12H1V9.5a.5.5 0 00-1 0v4a.5.5 0 00.5.5h13a.5.5 0 00.5-.5V.5a.5.5 0 00-.5-.5zM9 4.131l-1.114-.742a1.6 1.6 0 00-1.772 0L5 4.131V1h4z"/><path d="M4.5 11h5a.5.5 0 000-1h-5a.5.5 0 000 1zm0-2h5a.5.5 0 000-1h-5a.5.5 0 000 1z"/></symbol><symbol xmlns="http://www.w3.org/2000/svg" viewBox="0 0 14 14" id="cs-icon-woo-catalog-product-images"><path d="M13.5 0H.5a.5.5 0 00-.5.5v13a.5.5 0 00.5.5h13a.5.5 0 00.5-.5V.5a.5.5 0 00-.5-.5zm-1.53 12.97L8.71 9.71 10 8.41l3 3V13h-1.01c0-.01-.01-.02-.02-.03zm-1.55-5.55a.6.6 0 00-.84 0L8 9 4.43 5.43a.6.6 0 00-.86 0L1 8V1h12v9zM6 13H1V9.41l3-3 3.3 3.3.7.7L10.59 13z"/><path d="M10 2a2 2 0 102 2 2 2 0 00-2-2zm0 3a1 1 0 111-1 1 1 0 01-1 1z"/></symbol><symbol xmlns="http://www.w3.org/2000/svg" viewBox="0 0 14 14" id="cs-icon-woo-checkout"><path d="M13.5 3h-2.63a4 4 0 00-7.74 0H.5a.5.5 0 00-.5.5v10a.5.5 0 00.5.5h13a.5.5 0 00.5-.5v-10a.5.5 0 00-.5-.5zM7 1a3 3 0 012.82 2H4.18A3 3 0 017 1zm6 12H1v-1h12zM1 11V4h12v7z"/><path d="M8.854 5.732a.5.5 0 10-.708.707L8.707 7H4.5a.5.5 0 000 1h4.207l-.561.561a.5.5 0 00.708.707l1.414-1.414a.5.5 0 000-.708z"/></symbol><symbol xmlns="http://www.w3.org/2000/svg" viewBox="0 0 14 14" id="cs-icon-woo-compare"><path d="M13.5 0H.5a.5.5 0 00-.5.5v13a.5.5 0 00.5.5h13a.5.5 0 00.5-.5V.5a.5.5 0 00-.5-.5zM13 1v12H1V1z"/><path d="M2.354 7.354l2.828 2.828a.5.5 0 10.707-.707L3.414 7l2.475-2.475a.5.5 0 10-.707-.707L2.354 6.646a.5.5 0 000 .708zM10.586 7L8.111 9.475a.5.5 0 00.707.707l2.828-2.828a.5.5 0 000-.708L8.818 3.818a.5.5 0 00-.707.707z"/><path d="M6.5 6.036h1a.5.5 0 000-1h-1a.5.5 0 000 1zM7.5 8h-1a.5.5 0 000 1h1a.5.5 0 000-1z"/></symbol><symbol xmlns="http://www.w3.org/2000/svg" viewBox="0 0 14 14" id="cs-icon-woo-filter-settings"><path d="M14 13.5V.5a.5.5 0 00-.5-.5H.5a.5.5 0 00-.5.5v13a.5.5 0 00.5.5h13a.5.5 0 00.5-.5zm-1-.5H1V1h12z"/><path d="M7 4.5a.5.5 0 00-.5-.5h-4a.5.5 0 000 1h4a.5.5 0 00.5-.5zm1-2v4a.5.5 0 001 0V5h2.5a.5.5 0 000-1H9V2.5a.5.5 0 00-1 0zm-1 7a.5.5 0 00.5.5h4a.5.5 0 000-1h-4a.5.5 0 00-.5.5zm-2-2V9H2.5a.5.5 0 000 1H5v1.5a.5.5 0 001 0v-4a.5.5 0 00-1 0z"/></symbol><symbol xmlns="http://www.w3.org/2000/svg" viewBox="0 0 14 14" id="cs-icon-woo-grid-components"><path d="M13.5 5a.5.5 0 00.5-.5v-4a.5.5 0 00-.5-.5H.5a.5.5 0 00-.5.5v13a.5.5 0 00.5.5h13a.5.5 0 00.5-.5v-4a.5.5 0 00-1 0V13H1V1h12v3.5a.5.5 0 00.5.5z"/><path d="M9.5 5h-5a.5.5 0 000 1h5a.5.5 0 000-1zm0 3h-5a.5.5 0 000 1h5a.5.5 0 000-1z"/></symbol><symbol xmlns="http://www.w3.org/2000/svg" viewBox="0 0 14 14" id="cs-icon-woo-grid-settings"><path d="M13.5 0H.5a.5.5 0 00-.5.5v13a.5.5 0 00.5.5h13a.5.5 0 00.5-.5V.5a.5.5 0 00-.5-.5zM9 1v3H6V1zm0 4v4H6V5zm-8 8V1h4v12zm5 0v-3h3v3zm7 0h-3v-3h3zm0-4h-3V5h3zm-3-5V1h3v3z"/></symbol><symbol xmlns="http://www.w3.org/2000/svg" viewBox="0 0 14 14" id="cs-icon-woo-mini-cart-panel"><path d="M13.5 13H.5a.5.5 0 000 1h13a.5.5 0 000-1zm-11-1h9a.5.5 0 00.5-.5v-8a.5.5 0 00-.5-.5H10a3 3 0 00-6 0H2.5a.5.5 0 00-.5.5v8a.5.5 0 00.5.5zM7 1a2.006 2.006 0 012 2H5a2.006 2.006 0 012-2zM3 4h1v.5a.5.5 0 001 0V4h4v.5a.5.5 0 001 0V4h1v4H3zm8 5v2H3V9z"/></symbol><symbol xmlns="http://www.w3.org/2000/svg" viewBox="0 0 14 14" id="cs-icon-woo-pdp-components-in-page"><path d="M13.5 0H.5a.5.5 0 00-.5.5v13a.5.5 0 00.5.5h4a.5.5 0 000-1H1V4h12v9H9.5a.5.5 0 000 1h4a.5.5 0 00.5-.5V.5a.5.5 0 00-.5-.5zM1 3V1h12v2z"/><path d="M4.5 8h5a.5.5 0 000-1h-5a.5.5 0 000 1zm0 3h5a.5.5 0 000-1h-5a.5.5 0 000 1z"/></symbol><symbol xmlns="http://www.w3.org/2000/svg" viewBox="0 0 14 14" id="cs-icon-logo"><path d="M13.5 0H.5a.5.5 0 00-.5.5v13a.5.5 0 00.5.5h13a.5.5 0 00.5-.5V.5a.5.5 0 00-.5-.5zM13 13H1V1h12z"/><path d="M2.5 11h2a.5.5 0 00.5-.5v-2a.5.5 0 00-.5-.5H4a3 3 0 016 0h-.5a.5.5 0 00-.5.5v2a.5.5 0 00.5.5h2a.5.5 0 00.5-.5v-2a.5.5 0 00-.5-.5H11a3.971 3.971 0 00-1.379-3H11.5a.5.5 0 000-1h-9a.5.5 0 000 1h1.879A3.971 3.971 0 003 8h-.5a.5.5 0 00-.5.5v2a.5.5 0 00.5.5zM11 9v1h-1V9h1zM3 9h1v1H3z"/></symbol><symbol xmlns="http://www.w3.org/2000/svg" viewBox="0 0 14 14" id="cs-icon-woo-pdp-components-in-summary"><path d="M.5 12h5a.5.5 0 000-1h-5a.5.5 0 000 1zm13-1h-5a.5.5 0 000 1h5a.5.5 0 000-1zm0 2H.5a.5.5 0 000 1h13a.5.5 0 000-1zm0-13H.5a.5.5 0 00-.5.5v2a.5.5 0 001 0V1h12v8H1V7.5a.5.5 0 00-1 0v2a.5.5 0 00.5.5h13a.5.5 0 00.5-.5v-9a.5.5 0 00-.5-.5z"/><path d="M6.5 4h4a.5.5 0 000-1h-4a.5.5 0 000 1zm0 3h4a.5.5 0 000-1h-4a.5.5 0 000 1z"/></symbol><symbol xmlns="http://www.w3.org/2000/svg" viewBox="0 0 14 14" id="cs-icon-woo-pdp-image-gallery"><path d="M13.5 0h-11a.5.5 0 000 1H13v10.5a.5.5 0 001 0V.5a.5.5 0 00-.5-.5z"/><path d="M11.5 2H.5a.5.5 0 00-.5.5v11a.5.5 0 00.5.5h11a.5.5 0 00.5-.5v-11a.5.5 0 00-.5-.5zM9.98 12.98l-2.27-2.27L9 9.41l2 2V13h-1zm-.56-4.56a.6.6 0 00-.84 0L7 10 4.42 7.42a.6.6 0 00-.84 0L1 10V3h10v7zM4 13H1v-1.59l3-3 2.3 2.3.7.7L8.59 13z"/><circle cx="9" cy="5" r="1"/></symbol><symbol xmlns="http://www.w3.org/2000/svg" viewBox="0 0 14 14" id="cs-icon-woo-pdp-layout"><path d="M.5 7h6a.5.5 0 00.5-.5v-6a.5.5 0 00-.5-.5h-6a.5.5 0 00-.5.5v6a.5.5 0 00.5.5zM1 6V1h5v5zm12.5-1h-5a.5.5 0 000 1h5a.5.5 0 000-1zm0-2h-5a.5.5 0 000 1h5a.5.5 0 000-1zm-5-1h5a.5.5 0 000-1h-5a.5.5 0 000 1zm5 6H.5a.5.5 0 00-.5.5v5a.5.5 0 00.5.5h13a.5.5 0 00.5-.5v-5a.5.5 0 00-.5-.5zM13 9v4H1V9z"/></symbol><symbol xmlns="http://www.w3.org/2000/svg" viewBox="0 0 14 14" id="cs-icon-woo-pdp-tabs-blocks"><path d="M13.5 0h-2a.5.5 0 000 1H13v1.5a.5.5 0 001 0v-2a.5.5 0 00-.5-.5zm-6 1H9v1.5a.5.5 0 001 0v-2a.5.5 0 00-.5-.5h-2a.5.5 0 000 1z"/><path d="M13.5 4h-8a.5.5 0 000 1H13v8H1V1h4.5a.5.5 0 000-1h-5a.5.5 0 00-.5.5v13a.5.5 0 00.5.5h13a.5.5 0 00.5-.5v-9a.5.5 0 00-.5-.5z"/><path d="M10.5 7h-7a.5.5 0 000 1h7a.5.5 0 000-1zm0 3h-7a.5.5 0 000 1h7a.5.5 0 000-1z"/></symbol><symbol xmlns="http://www.w3.org/2000/svg" viewBox="0 0 14 14" id="cs-icon-woo-refunds-form"><path d="M13.5 0H.5a.5.5 0 00-.5.5v13a.5.5 0 00.5.5h13a.5.5 0 00.5-.5V.5a.5.5 0 00-.5-.5zM13 13H1V1h12z"/><path d="M4.146 5.268a.5.5 0 10.708-.707L4.293 4H8.5a1.5 1.5 0 010 3h-5a.5.5 0 000 1h5a2.5 2.5 0 000-5H4.293l.561-.561a.5.5 0 00-.708-.707L2.732 3.146a.5.5 0 000 .708zM10.5 10h-7a.5.5 0 000 1h7a.5.5 0 000-1z"/></symbol><symbol xmlns="http://www.w3.org/2000/svg" viewBox="0 0 14 14" id="cs-icon-woocommerce"><circle cx="2" cy="13" r="1"/><circle cx="11" cy="13" r="1"/><path d="M8.8 9h.882a.6.6 0 00.5-.267l3.634-5.451A1.117 1.117 0 0014 2.661V2.32a.32.32 0 00-.32-.32H2V.5a.5.5 0 00-.5-.5H.529A.519.519 0 000 .448.5.5 0 00.5 1H1v9.5a.5.5 0 00.5.5h9.972a.519.519 0 00.528-.449.5.5 0 00-.5-.551H2V9zM2 3h10.8L9.463 8H2z"/></symbol><symbol xmlns="http://www.w3.org/2000/svg" viewBox="0 0 14 14" id="cs-icon-woo-store-notice"><circle cx="11.5" cy="11.5" r=".5"/><path d="M11.5 10a.5.5 0 00.5-.5v-4a.5.5 0 00-1 0v4a.5.5 0 00.5.5z"/><path d="M13.5 3h-4a.5.5 0 00-.5.5v10a.5.5 0 00.5.5h4a.5.5 0 00.5-.5v-10a.5.5 0 00-.5-.5zM13 4v9h-3V4z"/><path d="M7.5 11H1V1h10v.5a.5.5 0 001 0v-1a.5.5 0 00-.5-.5H.5a.5.5 0 00-.5.5v11a.5.5 0 00.5.5h7a.5.5 0 000-1z"/><path d="M7.5 8h-5a.5.5 0 000 1h5a.5.5 0 000-1zm0-2h-5a.5.5 0 000 1h5a.5.5 0 000-1zm-5-3a.5.5 0 000 1h2a.5.5 0 000-1z"/></symbol><symbol xmlns="http://www.w3.org/2000/svg" viewBox="0 0 14 14" id="cs-icon-sticky-global-sections"><path d="M7 2a5 5 0 105 5 5 5 0 00-5-5zm0 1a3.987 3.987 0 013.444 2H3.556A3.987 3.987 0 017 3zm0 8a3.987 3.987 0 01-3.444-2h6.888A3.987 3.987 0 017 11zm3.858-3H3.142A3.939 3.939 0 013 7a3.939 3.939 0 01.142-1h7.716A3.939 3.939 0 0111 7a3.939 3.939 0 01-.142 1z"/><path d="M2.757 2.759a6.007 6.007 0 018.486 0 .5.5 0 00.707 0 .5.5 0 00.063-.629.292.292 0 00-.063-.078.333.333 0 00-.078-.064 6.963 6.963 0 00-9.744 0 .333.333 0 00-.078.064.305.305 0 00-.063.077.5.5 0 00.063.63.5.5 0 00.707 0zm8.486 8.482a6.007 6.007 0 01-8.486 0 .5.5 0 00-.707 0 .5.5 0 00-.063.629.292.292 0 00.063.078.314.314 0 00.078.064 6.963 6.963 0 009.744 0 .31.31 0 00.078-.064.305.305 0 00.063-.077.5.5 0 00-.063-.63.5.5 0 00-.707 0z"/><circle cx="13.5" cy="7" r=".5"/><circle cx=".5" cy="7" r=".5"/></symbol><symbol xmlns="http://www.w3.org/2000/svg" viewBox="0 0 14 14" id="cs-icon-widgets-filter-panel"><path d="M2.5 8h4a.5.5 0 000-1h-4a.5.5 0 000 1zm6 1a.5.5 0 00.5-.5V8h2.5a.5.5 0 000-1H9v-.5a.5.5 0 00-1 0v2a.5.5 0 00.5.5z"/><path d="M13.5 0H.5a.5.5 0 00-.5.5v13a.5.5 0 00.5.5h13a.5.5 0 00.5-.5V.5a.5.5 0 00-.5-.5zM13 13H1v-2h12zm0-3H1V5h12zM1 4V1h12v3z"/></symbol><symbol xmlns="http://www.w3.org/2000/svg" viewBox="0 0 14 14" id="cs-icon-widgets-shop-sidebar"><path d="M13.5 0H.5a.5.5 0 00-.5.5v13a.5.5 0 00.5.5h13a.5.5 0 00.5-.5V.5a.5.5 0 00-.5-.5zM1 13V1h4v12zM6 1h7v12H6z"/><path d="M2.5 4h1a.5.5 0 000-1h-1a.5.5 0 000 1zm1 2h-1a.5.5 0 000 1h1a.5.5 0 000-1zm0 3h-1a.5.5 0 000 1h1a.5.5 0 000-1z"/></symbol><symbol xmlns="http://www.w3.org/2000/svg" viewBox="0 0 14 14" id="cs-icon-widgets-filter-top-bar"><path d="M7 3.5a.5.5 0 00-.5-.5h-4a.5.5 0 000 1h4a.5.5 0 00.5-.5zm2 1V4h2.5a.5.5 0 000-1H9v-.5a.5.5 0 00-1 0v2a.5.5 0 001 0z"/><path d="M14 13.5V.5a.5.5 0 00-.5-.5H.5a.5.5 0 00-.5.5v13a.5.5 0 00.5.5h13a.5.5 0 00.5-.5zM1 1h12v5H1zm12 6v6H1V7z"/></symbol><symbol xmlns="http://www.w3.org/2000/svg" viewBox="0 0 14 14" id="cs-icon-shopping-cart"><path d="M13.5 3h-2.63a4 4 0 00-7.74 0H.5a.5.5 0 00-.5.5v10a.5.5 0 00.5.5h13a.5.5 0 00.5-.5v-10a.5.5 0 00-.5-.5zM7 1a3 3 0 012.82 2H4.18A3 3 0 017 1zm6 12H1v-2h12zM1 10V4h2v.5a.5.5 0 001 0V4h6v.5a.5.5 0 001 0V4h2v6z"/></symbol><symbol xmlns="http://www.w3.org/2000/svg" viewBox="0 0 14 14" id="cs-icon-header-cta"><path d="M13.5 0H.5a.5.5 0 00-.5.5v13a.5.5 0 00.5.5h13a.5.5 0 00.5-.5v-4a.5.5 0 00-1 0V13H1V1h12v3.5a.5.5 0 001 0v-4a.5.5 0 00-.5-.5z"/><path d="M3.5 3a.5.5 0 00-.5.5v7a.5.5 0 00.5.5h7a.5.5 0 00.5-.5v-7a.5.5 0 00-.5-.5zM10 4v6H4V4z"/><path d="M5.5 9h3a.5.5 0 000-1h-3a.5.5 0 000 1z"/></symbol></defs></svg>