<svg xmlns="http://www.w3.org/2000/svg" viewBox="0 0 512 512"><symbol id="pdp-add-to-cart" xmlns="http://www.w3.org/2000/svg" viewBox="0 0 89 65"><g fill="none"><path d="M11.3 10.6a2.2 2.2 0 110-4.4 2.2 2.2 0 010 4.4zm7.1 0a2.2 2.2 0 110-4.4 2.2 2.2 0 010 4.4zm7 0a2.2 2.2 0 110-4.4 2.2 2.2 0 010 4.4zM17 60.5v3H5A4.5 4.5 0 01.5 59V5A4.5 4.5 0 015 .5h63A4.5 4.5 0 0172.5 5v12.5h-3V5A1.5 1.5 0 0068 3.5H5A1.5 1.5 0 003.5 5v54A1.5 1.5 0 005 60.5h12z" fill="#000" transform="translate(0 1)"/><path d="M65.123 30.975c.8.997 1.053 2.297.758 3.511l-3.159 13.35C62.302 49.7 60.66 51 58.806 51H42.003c-1.853 0-3.453-1.3-3.917-3.164L32.95 26.77c-.169-.65-.716-1.084-1.348-1.084h-4.295c-.716 0-1.306-.607-1.306-1.343 0-.737.59-1.344 1.306-1.344H31.6c1.853 0 3.453 1.3 3.917 3.164l.8 3.208h25.646c1.222 0 2.4.606 3.159 1.603zm-1.673 2.89c.128-.441 0-.881-.256-1.234a1.397 1.397 0 00-1.107-.572H36.833l3.705 15.37c.17.66.724 1.1 1.363 1.1h16.992c.639 0 1.193-.44 1.363-1.1l3.194-13.565zM43.5 53c2.466 0 4.5 2.034 4.5 4.5S45.966 62 43.5 62 39 59.966 39 57.5s2.034-4.5 4.5-4.5zm-.41 6.545c.879 0 1.637-.758 1.637-1.636 0-.918-.718-1.636-1.636-1.636-.918 0-1.636.718-1.636 1.636 0 .918.718 1.636 1.636 1.636zM58 53c2.192 0 3.962 2.034 4 4.5 0 2.466-1.808 4.5-4 4.5s-4-2.034-4-4.5 1.808-4.5 4-4.5zm0 6.545c.859 0 1.6-.758 1.6-1.636 0-.918-.702-1.636-1.6-1.636-.898 0-1.6.718-1.6 1.636 0 .918.702 1.636 1.6 1.636z" fill="#CD2323" transform="translate(0 1)"/><path fill="#000" d="M51 39h4v2h-4v4h-2v-4h-4v-2h4v-4h2z" transform="translate(0 1)"/></g></symbol><symbol id="pdp-after-summary-gs" xmlns="http://www.w3.org/2000/svg" viewBox="0 0 89 65"><g fill="none"><path d="M11.3 10.6a2.2 2.2 0 110-4.4 2.2 2.2 0 010 4.4zm7.1 0a2.2 2.2 0 110-4.4 2.2 2.2 0 010 4.4zm7 0a2.2 2.2 0 110-4.4 2.2 2.2 0 010 4.4zM17 60.5v3H5A4.5 4.5 0 01.5 59V5A4.5 4.5 0 015 .5h63A4.5 4.5 0 0172.5 5v12.5h-3V5A1.5 1.5 0 0068 3.5H5A1.5 1.5 0 003.5 5v54A1.5 1.5 0 005 60.5h12z" fill="#000"/><path d="M31 31h32a2 2 0 012 2v4a2 2 0 01-2 2H31a2 2 0 01-2-2v-4a2 2 0 012-2z" fill="#CD2323"/><path d="M31 43h10a2 2 0 012 2v4a2 2 0 01-2 2H31a2 2 0 01-2-2v-4a2 2 0 012-2z" fill="#000"/><path d="M49 43h14a2 2 0 012 2v4a2 2 0 01-2 2H49a2 2 0 01-2-2v-4a2 2 0 012-2z" fill="#CD2323"/><path d="M26 25h42a2 2 0 012 2v29a2 2 0 01-2 2H26a2 2 0 01-2-2V27a2 2 0 012-2z" stroke="#CD2323"/></g></symbol><symbol id="pdp-badge" xmlns="http://www.w3.org/2000/svg" viewBox="0 0 89 65"><g fill="none" fill-rule="evenodd"><path d="M11.3 10.6a2.2 2.2 0 110-4.4 2.2 2.2 0 010 4.4zm7.1 0a2.2 2.2 0 110-4.4 2.2 2.2 0 010 4.4zm7 0a2.2 2.2 0 110-4.4 2.2 2.2 0 010 4.4zM17 60.5v3H5A4.5 4.5 0 01.5 59V5A4.5 4.5 0 015 .5h63A4.5 4.5 0 0172.5 5v12.5h-3V5A1.5 1.5 0 0068 3.5H5A1.5 1.5 0 003.5 5v54A1.5 1.5 0 005 60.5h12z" fill="#000" fill-rule="nonzero"/><path d="M31 31h10a2 2 0 012 2v4a2 2 0 01-2 2H31a2 2 0 01-2-2v-4a2 2 0 012-2zm0 12h10a2 2 0 012 2v4a2 2 0 01-2 2H31a2 2 0 01-2-2v-4a2 2 0 012-2zm19-12h14a2 2 0 012 2v4a2 2 0 01-2 2H50a2 2 0 01-2-2v-4a2 2 0 012-2z" fill="#CD2323" fill-rule="nonzero"/><path d="M53.5 50l-1 3.5m8-5.5l6 7.5m0-12.5h9" stroke="#000" stroke-width="3" stroke-linecap="square"/></g></symbol><symbol id="pdp-brand" xmlns="http://www.w3.org/2000/svg" viewBox="0 0 89 65"><g fill="none" fill-rule="evenodd"><path d="M11.3 10.6a2.2 2.2 0 110-4.4 2.2 2.2 0 010 4.4zm7.1 0a2.2 2.2 0 110-4.4 2.2 2.2 0 010 4.4zm7 0a2.2 2.2 0 110-4.4 2.2 2.2 0 010 4.4zM17 60.5v3H5A4.5 4.5 0 01.5 59V5A4.5 4.5 0 015 .5h63A4.5 4.5 0 0172.5 5v12.5h-3V5A1.5 1.5 0 0068 3.5H5A1.5 1.5 0 003.5 5v54A1.5 1.5 0 005 60.5h12z" fill="#000" fill-rule="nonzero"/><path d="M47.5 36.4a2.1 2.1 0 110 4.2 2.1 2.1 0 010-4.2zm0-1.4c-1.93 0-3.5 1.57-3.5 3.503A3.502 3.502 0 0047.5 42c1.93 0 3.5-1.57 3.5-3.497A3.505 3.505 0 0047.5 35z" fill="#000" fill-rule="nonzero"/><path d="M65.12 45.264L54.275 56.112a3.025 3.025 0 01-4.281 0L37 43.131V28h15.127L65.12 40.997a3.027 3.027 0 010 4.267z" stroke="#CD2323" stroke-width="2" stroke-linecap="round" stroke-linejoin="round"/></g></symbol><symbol id="pdp-buy-now" xmlns="http://www.w3.org/2000/svg" viewBox="0 0 89 65"><g fill="none"><path d="M11.3 10.6a2.2 2.2 0 110-4.4 2.2 2.2 0 010 4.4zm7.1 0a2.2 2.2 0 110-4.4 2.2 2.2 0 010 4.4zm7 0a2.2 2.2 0 110-4.4 2.2 2.2 0 010 4.4zM17 60.5v3H5A4.5 4.5 0 01.5 59V5A4.5 4.5 0 015 .5h63A4.5 4.5 0 0172.5 5v12.5h-3V5A1.5 1.5 0 0068 3.5H5A1.5 1.5 0 003.5 5v54A1.5 1.5 0 005 60.5h12z" fill="#000"/><path d="M49.68 25.001a.75.75 0 00-.576.385l-6 10.726a.781.781 0 00.002.767.747.747 0 00.651.381h3.36l-4.052 9.662a.776.776 0 00.266.947.738.738 0 00.958-.103l13.493-13.799a.779.779 0 00.16-.835.75.75 0 00-.692-.472h-3.17l3.813-6.499a.781.781 0 00.01-.771.747.747 0 00-.653-.389h-7.493a.734.734 0 00-.078 0zM50.198 27H56l-3.86 6.379a.746.746 0 00-.01.755.76.76 0 00.658.382h2.72L45.94 44l2.999-6.934a.746.746 0 00-.063-.708.76.76 0 00-.63-.34H45L50.199 27z" fill="#000"/><path d="M40 33v2H29a1 1 0 00-1 1v17a1 1 0 001 1h42a1 1 0 001-1V36a1 1 0 00-1-1H61v-2h10a3 3 0 013 3v17a3 3 0 01-3 3H29a3 3 0 01-3-3V36a3 3 0 013-3h11z" fill="#CD2323"/></g></symbol><symbol id="pdp-cats" xmlns="http://www.w3.org/2000/svg" viewBox="0 0 89 65"><g fill="none"><path d="M11.3 10.6a2.2 2.2 0 110-4.4 2.2 2.2 0 010 4.4zm7.1 0a2.2 2.2 0 110-4.4 2.2 2.2 0 010 4.4zm7 0a2.2 2.2 0 110-4.4 2.2 2.2 0 010 4.4zM17 60.5v3H5A4.5 4.5 0 01.5 59V5A4.5 4.5 0 015 .5h63A4.5 4.5 0 0172.5 5v12.5h-3V5A1.5 1.5 0 0068 3.5H5A1.5 1.5 0 003.5 5v54A1.5 1.5 0 005 60.5h12z" fill="#000"/><path d="M51 48h3v-3a1 1 0 011-1h8a1 1 0 011 1v8a1 1 0 01-1 1h-8a1 1 0 01-1-1v-3h-3v7a1 1 0 11-2 0V43h-3v3a1 1 0 01-1 1h-8a1 1 0 01-1-1v-8a1 1 0 011-1h8a1 1 0 011 1v3h3V27a1 1 0 112 0v5h3v-3a1 1 0 011-1h8a1 1 0 011 1v8a1 1 0 01-1 1h-8a1 1 0 01-1-1v-3h-3v14zm-13-3h6v-6h-6v6zm18 7h6v-6h-6v6zm0-16h6v-6h-6v6z" fill="#CD2323"/></g></symbol><symbol id="pdp-compare" xmlns="http://www.w3.org/2000/svg" viewBox="0 0 89 65"><g fill="none"><path d="M11.3 10.6a2.2 2.2 0 110-4.4 2.2 2.2 0 010 4.4zm7.1 0a2.2 2.2 0 110-4.4 2.2 2.2 0 010 4.4zm7 0a2.2 2.2 0 110-4.4 2.2 2.2 0 010 4.4zM17 60.5v3H5A4.5 4.5 0 01.5 59V5A4.5 4.5 0 015 .5h63A4.5 4.5 0 0172.5 5v12.5h-3V5A1.5 1.5 0 0068 3.5H5A1.5 1.5 0 003.5 5v54A1.5 1.5 0 005 60.5h12z" fill="#000"/><path d="M38 35v2H27a1 1 0 00-1 1v17a1 1 0 001 1h42a1 1 0 001-1V38a1 1 0 00-1-1H59v-2h10a3 3 0 013 3v17a3 3 0 01-3 3H27a3 3 0 01-3-3V38a3 3 0 013-3h11z" fill="#CD2323"/><path d="M45.383 43.625H32v3.75h13.383V53L53 45.5 45.383 38v5.625zM51.617 36v-5.625H65v-3.75H51.617V21L44 28.5l7.617 7.5z" fill="#000"/></g></symbol><symbol id="pdp-discount-label" xmlns="http://www.w3.org/2000/svg" viewBox="0 0 89 65"><g fill="none"><path d="M11.3 10.6a2.2 2.2 0 110-4.4 2.2 2.2 0 010 4.4zm7.1 0a2.2 2.2 0 110-4.4 2.2 2.2 0 010 4.4zm7 0a2.2 2.2 0 110-4.4 2.2 2.2 0 010 4.4zM17 60.5v3H5A4.5 4.5 0 01.5 59V5A4.5 4.5 0 015 .5h63A4.5 4.5 0 0172.5 5v12.5h-3V5A1.5 1.5 0 0068 3.5H5A1.5 1.5 0 003.5 5v54A1.5 1.5 0 005 60.5h12z" fill="#000"/><path d="M31 31h42a2 2 0 012 2v18a2 2 0 01-2 2H31a2 2 0 01-2-2V33a2 2 0 012-2z" stroke="#CD2323" stroke-width="2"/><path d="M45 38.98c0 .89-.226 1.616-.68 2.178a2.157 2.157 0 01-1.76.842c-.781 0-1.403-.275-1.866-.826-.463-.546-.694-1.29-.694-2.234 0-.89.229-1.602.687-2.137.462-.535 1.077-.803 1.843-.803.741 0 1.338.273 1.79.819.454.545.68 1.266.68 2.161zm-2 .56c0-1.027-.165-1.54-.496-1.54-.336 0-.504.5-.504 1.5s.17 1.5.512 1.5c.325 0 .488-.487.488-1.46zm9 6.444c0 .891-.226 1.618-.68 2.18-.457.557-1.044.836-1.76.836-.781 0-1.403-.273-1.866-.82-.463-.546-.694-1.291-.694-2.236 0-.891.229-1.604.687-2.14.462-.536 1.077-.804 1.843-.804.741 0 1.338.273 1.79.82.454.546.68 1.268.68 2.164zm-2-.44c0-1.03-.165-1.544-.496-1.544-.336 0-.504.502-.504 1.505 0 .997.17 1.495.512 1.495.325 0 .488-.485.488-1.455zM42.279 49L41 48.1 49.681 36l1.319.908L42.279 49zM57 38.98c0 .89-.226 1.616-.68 2.178a2.157 2.157 0 01-1.76.842c-.781 0-1.403-.275-1.866-.826-.463-.546-.694-1.29-.694-2.234 0-.89.229-1.602.687-2.137.462-.535 1.077-.803 1.843-.803.741 0 1.338.273 1.79.819.454.545.68 1.266.68 2.161zm-2 .56c0-1.027-.165-1.54-.496-1.54-.336 0-.504.5-.504 1.5s.17 1.5.512 1.5c.325 0 .488-.487.488-1.46zm9 6.444c0 .891-.226 1.618-.68 2.18-.457.557-1.044.836-1.76.836-.781 0-1.403-.273-1.866-.82-.463-.546-.694-1.291-.694-2.236 0-.891.229-1.604.687-2.14.462-.536 1.077-.804 1.843-.804.741 0 1.338.273 1.79.82.454.546.68 1.268.68 2.164zm-2-.44c0-1.03-.165-1.544-.496-1.544-.336 0-.504.502-.504 1.505 0 .997.17 1.495.512 1.495.325 0 .488-.485.488-1.455zM54.279 49L53 48.1 61.681 36l1.319.908L54.279 49z" fill="#000"/></g></symbol><symbol id="pdp-gallery" xmlns="http://www.w3.org/2000/svg" viewBox="0 0 89 65"><g fill="none"><path d="M11.3 10.6a2.2 2.2 0 110-4.4 2.2 2.2 0 010 4.4zm7.1 0a2.2 2.2 0 110-4.4 2.2 2.2 0 010 4.4zm7 0a2.2 2.2 0 110-4.4 2.2 2.2 0 010 4.4zM17 60.5v3H5A4.5 4.5 0 01.5 59V5A4.5 4.5 0 015 .5h63A4.5 4.5 0 0172.5 5v12.5h-3V5A1.5 1.5 0 0068 3.5H5A1.5 1.5 0 003.5 5v54A1.5 1.5 0 005 60.5h12z" fill="#000"/><path d="M40 19h24a2 2 0 012 2v38a2 2 0 01-2 2H40a2 2 0 01-2-2V21a2 2 0 012-2z" stroke="#000" stroke-width="2"/><path d="M25 19h7a2 2 0 012 2v5a2 2 0 01-2 2h-7a2 2 0 01-2-2v-5a2 2 0 012-2zm0 12h7a2 2 0 012 2v4a2 2 0 01-2 2h-7a2 2 0 01-2-2v-4a2 2 0 012-2zm0 11h7a2 2 0 012 2v5a2 2 0 01-2 2h-7a2 2 0 01-2-2v-5a2 2 0 012-2z" fill="#CD2323"/></g></symbol><symbol id="pdp-estimated-delivery" xmlns="http://www.w3.org/2000/svg" viewBox="0 0 89 65"><g fill="none"><path d="M11.3 10.6a2.2 2.2 0 110-4.4 2.2 2.2 0 010 4.4zm7.1 0a2.2 2.2 0 110-4.4 2.2 2.2 0 010 4.4zm7 0a2.2 2.2 0 110-4.4 2.2 2.2 0 010 4.4zM17 60.5v3H5A4.5 4.5 0 01.5 59V5A4.5 4.5 0 015 .5h63A4.5 4.5 0 0172.5 5v12.5h-3V5A1.5 1.5 0 0068 3.5H5A1.5 1.5 0 003.5 5v54A1.5 1.5 0 005 60.5h12z" fill="#000"/><path d="M34.767 38.082a9.35 9.35 0 003.631 2.367c.47.163.959.306 1.469.388.49.102 1 .143 1.51.163h.244a9.67 9.67 0 003.999-.877 9 9 0 002.53-1.735c1.06-1.02 1.897-2.265 2.386-3.652a9.47 9.47 0 00.572-3.04c.04-1.45-.286-2.918-.898-4.244a9.963 9.963 0 00-1.754-2.551 9.536 9.536 0 00-3.632-2.346 8.628 8.628 0 00-1.469-.388c-.51-.102-1-.143-1.51-.163a9.547 9.547 0 00-4.243.877 9.888 9.888 0 00-2.55 1.734 9.351 9.351 0 00-2.366 3.632 9.47 9.47 0 00-.408 1.49 9.745 9.745 0 00-.163 1.53 9.346 9.346 0 00.918 4.265 9.24 9.24 0 001.734 2.55zm-.45-7.937a7.452 7.452 0 012.183-4.02 7.404 7.404 0 012-1.367 7.56 7.56 0 013.121-.694h.184c.388 0 .796.062 1.183.123.388.081.775.184 1.143.306a7.485 7.485 0 012.835 1.836 7.405 7.405 0 011.367 2c.49 1.02.735 2.183.694 3.305 0 .409-.061.817-.123 1.204a6.965 6.965 0 01-.326 1.163 7.42 7.42 0 01-1.877 2.857c-.592.55-1.244 1.02-1.979 1.347a7.55 7.55 0 01-3.325.693c-.388 0-.796-.06-1.183-.122a10.44 10.44 0 01-1.143-.306 7.331 7.331 0 01-2.836-1.837 7.79 7.79 0 01-1.366-1.979 7.514 7.514 0 01-.714-3.326c.04-.387.081-.795.163-1.183z" fill="#000"/><path d="M39.634 33.387c.194.225.446.388.717.49.097.041.194.062.29.082.098.02.194.041.31.041.291 0 .582-.061.853-.184.194-.082.349-.204.504-.368a2.07 2.07 0 00.484-.776c.039-.102.058-.204.078-.306a1.88 1.88 0 00.039-.327c0-.143-.02-.286-.04-.409l1.919-1.818c.407-.388.426-1.042.077-1.471a.966.966 0 00-1.395-.082l-1.918 1.818c-.058-.02-.135-.04-.193-.06a1.432 1.432 0 00-.31-.042c-.291 0-.582.062-.853.184a1.939 1.939 0 00-.504.368c-.213.204-.368.47-.465.756a1.804 1.804 0 00-.077.306 1.88 1.88 0 00-.039.327 2.243 2.243 0 00.523 1.471z" fill="#000"/><path d="M76.879 40.563h-4.5l-4.133-9.421A1.929 1.929 0 0066.486 30H54.928c-.573 0-1.043.469-1.043 1.04v13.07h-23.73c-.573 0-1.044.47-1.044 1.04v7.933c0 1.06.86 1.917 1.923 1.917h2.987c.573 0 1.043-.469 1.043-1.04 0-.57-.47-1.04-1.043-1.04h-2.823v-6.75h23.73c.573 0 1.043-.469 1.043-1.04V32.04h10.413l3.826 8.727.552 1.223c.164.367.532.612.941.612h5.176c.654 0 1.166.53 1.166 1.162v9.115h-2.823c-.573 0-1.044.47-1.044 1.04 0 .571.47 1.04 1.044 1.04h2.966a1.918 1.918 0 001.923-1.917v-9.257c.02-1.774-1.453-3.222-3.232-3.222z" fill="#CD2323"/><path d="M61.105 53H47.138c-.564 0-1.027.451-1.027 1 0 .549.463 1 1.027 1h13.947c.563 0 1.026-.451 1.026-1a1 1 0 00-1.006-1zm-16.212.634a3.92 3.92 0 00-1.524-1.96c-.02-.02-.06-.04-.08-.06l-.534-.277a.335.335 0 00-.1-.04l-.237-.08-.376-.118c-.1-.02-.198-.04-.277-.06-.1-.02-.218-.02-.357-.039h-.317l-.277.02c-.099 0-.198.02-.297.04-.099.02-.178.039-.277.059h-.04l-.257.06c-.08.019-.159.059-.277.098l-.258.119a4.108 4.108 0 00-2.06 2.257c0 .02-.039.1-.039.12A3.708 3.708 0 0037.111 55c0 2.198 1.782 4 4 4a4.002 4.002 0 003.802-5.248l-.02-.118zm-3.762 3.346c-1.09 0-1.98-.89-1.98-1.98 0-.198.04-.416.079-.554l.04-.1c.178-.495.554-.91.99-1.128l.455-.159c.04 0 .06-.02.119-.02.06 0 .099-.02.099-.02h.337c.059 0 .099.02.178.02.04 0 .079.02.079.02l.277.08.475.257c.337.238.594.574.733.97l.02.06c.06.178.099.396.099.594a2.012 2.012 0 01-2 1.96zm30.723-3.34c-.297-.814-.812-1.508-1.525-1.985a.433.433 0 01-.1-.06l-.672-.337c-.06-.02-.12-.06-.179-.06l-.376-.099a6.428 6.428 0 01-.277-.06c-.099-.02-.198-.02-.376-.039h-.516c-.158.02-.257.02-.336.04-.099.02-.178.04-.277.06h-.04l-.257.059c-.08.02-.139.04-.257.1l-.258.118c-.95.457-1.723 1.29-2.06 2.263 0 .02-.039.12-.039.12a3.726 3.726 0 00-.198 1.23 4.007 4.007 0 004 4.01c2.198 0 4-1.787 4-4.01 0-.417-.06-.834-.218-1.27l-.04-.08zm-3.763 3.335a1.988 1.988 0 01-1.9-2.54c0-.02.039-.1.039-.1a2.07 2.07 0 01.99-1.132l.455-.158c.04 0 .08-.02.12-.02.039 0 .098-.02.158-.02h.297c.06 0 .119.02.158.02.04 0 .08.02.08.02l.237.06.515.257c.336.238.574.576.732.993l.02.02c.06.198.1.397.1.595-.02 1.112-.912 2.005-2 2.005z" fill="#000"/></g></symbol><symbol id="pdp-nav" xmlns="http://www.w3.org/2000/svg" viewBox="0 0 89 65"><g fill="none"><path d="M11.3 10.6a2.2 2.2 0 110-4.4 2.2 2.2 0 010 4.4zm7.1 0a2.2 2.2 0 110-4.4 2.2 2.2 0 010 4.4zm7 0a2.2 2.2 0 110-4.4 2.2 2.2 0 010 4.4zM17 60.5v3H5A4.5 4.5 0 01.5 59V5A4.5 4.5 0 015 .5h63A4.5 4.5 0 0172.5 5v12.5h-3V5A1.5 1.5 0 0068 3.5H5A1.5 1.5 0 003.5 5v54A1.5 1.5 0 005 60.5h12zm42.383-12.875H46v3.75h13.383V57L67 49.5 59.383 42z" fill="#000"/><path fill="#CD2323" d="M35.617 42v-5.625H49v-3.75H35.617V27L28 34.5z"/></g></symbol><symbol id="pdp-notices" xmlns="http://www.w3.org/2000/svg" viewBox="0 0 89 65"><g fill="none"><path d="M11.3 10.6a2.2 2.2 0 110-4.4 2.2 2.2 0 010 4.4zm7.1 0a2.2 2.2 0 110-4.4 2.2 2.2 0 010 4.4zm7 0a2.2 2.2 0 110-4.4 2.2 2.2 0 010 4.4zM17 60.5v3H5A4.5 4.5 0 01.5 59V5A4.5 4.5 0 015 .5h63A4.5 4.5 0 0172.5 5v12.5h-3V5A1.5 1.5 0 0068 3.5H5A1.5 1.5 0 003.5 5v54A1.5 1.5 0 005 60.5h12z" fill="#000"/><path d="M16 25h16a2 2 0 012 2v19a2 2 0 01-2 2H16a2 2 0 01-2-2V27a2 2 0 012-2zm6 10v9h4v-9h-4zm0-5v3h4v-3h-4zm18-1h35a2 2 0 012 2v2a2 2 0 01-2 2H40a2 2 0 01-2-2v-2a2 2 0 012-2zm0 10h16a2 2 0 110 4H40a2 2 0 110-4z" fill="#CD2323"/></g></symbol><symbol id="pdp-price" xmlns="http://www.w3.org/2000/svg" viewBox="0 0 89 65"><g fill="none"><path d="M11.3 10.6a2.2 2.2 0 110-4.4 2.2 2.2 0 010 4.4zm7.1 0a2.2 2.2 0 110-4.4 2.2 2.2 0 010 4.4zm7 0a2.2 2.2 0 110-4.4 2.2 2.2 0 010 4.4zM17 60.5v3H5A4.5 4.5 0 01.5 59V5A4.5 4.5 0 015 .5h63A4.5 4.5 0 0172.5 5v12.5h-3V5A1.5 1.5 0 0068 3.5H5A1.5 1.5 0 003.5 5v54A1.5 1.5 0 005 60.5h12z" fill="#000"/><path d="M40 33v2H29a1 1 0 00-1 1v17a1 1 0 001 1h42a1 1 0 001-1V36a1 1 0 00-1-1H61v-2h10a3 3 0 013 3v17a3 3 0 01-3 3H29a3 3 0 01-3-3V36a3 3 0 013-3h11z" fill="#CD2323"/><path d="M51.78 25v2.42c1.44.147 2.653.533 3.64 1.16l-1.48 2.88c-.853-.653-1.693-.98-2.52-.98-.507 0-.92.117-1.24.35-.32.233-.48.497-.48.79 0 .267.127.52.38.76s.587.433 1 .58l1.18.4c1.32.453 2.273 1.01 2.86 1.67.587.66.88 1.517.88 2.57 0 .64-.073 1.207-.22 1.7a3.546 3.546 0 01-.72 1.32c-.333.387-.77.727-1.31 1.02-.54.293-1.197.56-1.97.8v2.48h-1.84v-2.38c-.413 0-.853-.05-1.32-.15a10.17 10.17 0 01-1.38-.4 8.859 8.859 0 01-1.27-.58 4.845 4.845 0 01-.97-.69l1.62-3.02c1.253 1.107 2.473 1.66 3.66 1.66.493 0 .923-.133 1.29-.4s.55-.613.55-1.04c0-.587-.433-1.02-1.3-1.3l-1.14-.36c-.68-.213-1.26-.447-1.74-.7a4.328 4.328 0 01-1.18-.88 3.223 3.223 0 01-.68-1.13c-.147-.42-.22-.903-.22-1.45 0-.573.083-1.127.25-1.66.167-.533.42-1.01.76-1.43a4.4 4.4 0 011.27-1.06c.507-.287 1.107-.463 1.8-.53V25h1.84z" fill="#000"/></g></symbol><symbol id="pdp-related" xmlns="http://www.w3.org/2000/svg" viewBox="0 0 89 65"><g fill="none" fill-rule="evenodd"><path d="M11.3 10.6a2.2 2.2 0 110-4.4 2.2 2.2 0 010 4.4zm7.1 0a2.2 2.2 0 110-4.4 2.2 2.2 0 010 4.4zm7 0a2.2 2.2 0 110-4.4 2.2 2.2 0 010 4.4zM17 60.5v3H5A4.5 4.5 0 01.5 59V5A4.5 4.5 0 015 .5h63A4.5 4.5 0 0172.5 5v12.5h-3V5A1.5 1.5 0 0068 3.5H5A1.5 1.5 0 003.5 5v54A1.5 1.5 0 005 60.5h12z" fill="#000" fill-rule="nonzero"/><path d="M24 28h12a2 2 0 012 2v23a2 2 0 01-2 2H24a2 2 0 01-2-2V30a2 2 0 012-2z" stroke="#CD2323" stroke-width="2" fill-rule="nonzero"/><path fill="#CD2323" d="M38 42h5v3h-5zm21 0h5v3h-5z"/><path d="M45 28h12a2 2 0 012 2v23a2 2 0 01-2 2H45a2 2 0 01-2-2V30a2 2 0 012-2zm21 0h12a2 2 0 012 2v23a2 2 0 01-2 2H66a2 2 0 01-2-2V30a2 2 0 012-2z" stroke="#CD2323" stroke-width="2" fill-rule="nonzero"/><path d="M29 48a1 1 0 110-2 1 1 0 010 2zm3 0a1 1 0 110-2 1 1 0 010 2zm2.8-7.1c.2.3.25.6.15.9l-1 2.5c-.15.4-.5.7-.95.7h-5c-.5 0-.9-.3-1-.8l-.85-4.2H26c-.55 0-1-.45-1-1s.45-1 1-1h1c.5 0 .9.35 1 .8l.3 1.7H34c.3 0 .6.15.8.4zM50 48a1 1 0 110-2 1 1 0 010 2zm3 0a1 1 0 110-2 1 1 0 010 2zm2.8-7.1c.2.3.25.6.15.9l-1 2.5c-.15.4-.5.7-.95.7h-5c-.5 0-.9-.3-1-.8l-.85-4.2H47c-.55 0-1-.45-1-1s.45-1 1-1h1c.5 0 .9.35 1 .8l.3 1.7H55c.3 0 .6.15.8.4zM71 48a1 1 0 110-2 1 1 0 010 2zm3 0a1 1 0 110-2 1 1 0 010 2zm2.8-7.1c.2.3.25.6.15.9l-1 2.5c-.15.4-.5.7-.95.7h-5c-.5 0-.9-.3-1-.8l-.85-4.2H68c-.55 0-1-.45-1-1s.45-1 1-1h1c.5 0 .9.35 1 .8l.3 1.7H76c.3 0 .6.15.8.4z" fill="#000" fill-rule="nonzero"/></g></symbol><symbol id="pdp-request-quote" xmlns="http://www.w3.org/2000/svg" viewBox="0 0 89 65"><g fill="none" fill-rule="evenodd"><path d="M11.3 10.6a2.2 2.2 0 110-4.4 2.2 2.2 0 010 4.4zm7.1 0a2.2 2.2 0 110-4.4 2.2 2.2 0 010 4.4zm7 0a2.2 2.2 0 110-4.4 2.2 2.2 0 010 4.4zM17 60.5v3H5A4.5 4.5 0 01.5 59V5A4.5 4.5 0 015 .5h63A4.5 4.5 0 0172.5 5v12.5h-3V5A1.5 1.5 0 0068 3.5H5A1.5 1.5 0 003.5 5v54A1.5 1.5 0 005 60.5h12z" fill="#000" fill-rule="nonzero"/><path d="M40 33v2H29a1 1 0 00-1 1v17a1 1 0 001 1h42a1 1 0 001-1V36a1 1 0 00-1-1h-3v-2h3a3 3 0 013 3v17a3 3 0 01-3 3H29a3 3 0 01-3-3V36a3 3 0 013-3h11z" fill="#CD2323" fill-rule="nonzero"/><path d="M45.357 42h4.072l2.714-5.2V29H44v7.8h4.071L45.357 42zm10.857 0h4.072L63 36.8V29h-8.143v7.8h4.072L56.214 42z" fill="#000" fill-rule="nonzero"/><path d="M37 19h32v32H37z"/><path fill="#CD2323" d="M36 47h27v3H36z"/></g></symbol><symbol id="pdp-review-count" xmlns="http://www.w3.org/2000/svg" viewBox="0 0 89 65"><g fill="none" fill-rule="evenodd"><path d="M11.3 10.6a2.2 2.2 0 110-4.4 2.2 2.2 0 010 4.4zm7.1 0a2.2 2.2 0 110-4.4 2.2 2.2 0 010 4.4zm7 0a2.2 2.2 0 110-4.4 2.2 2.2 0 010 4.4zM17 60.5v3H5A4.5 4.5 0 01.5 59V5A4.5 4.5 0 015 .5h63A4.5 4.5 0 0172.5 5v12.5h-3V5A1.5 1.5 0 0068 3.5H5A1.5 1.5 0 003.5 5v54A1.5 1.5 0 005 60.5h12z" fill="#000" fill-rule="nonzero"/><path fill="#CD2323" d="M33 49l-4.702 2.472.898-5.236-3.804-3.708 5.257-.764L33 37l2.351 4.764 5.257.764-3.804 3.708.898 5.236zm18 0l-4.702 2.472.898-5.236-3.804-3.708 5.257-.764L51 37l2.351 4.764 5.257.764-3.804 3.708.898 5.236z"/><path stroke="#000" d="M69 49l-4.702 2.472.898-5.236-3.804-3.708 5.257-.764L69 37l2.351 4.764 5.257.764-3.804 3.708.898 5.236z"/><path d="M52.438 27.981H51V26h4v9h-2.562v-7.019zM64 35h-7l2.157-2.256a21.037 21.037 0 001.337-1.517c.323-.415.563-.766.721-1.053.158-.286.256-.519.294-.697.039-.179.058-.33.058-.454 0-.132-.021-.26-.064-.383a.98.98 0 00-.496-.564.95.95 0 00-.42-.088c-.308 0-.548.101-.721.303a1.12 1.12 0 00-.26.756c0 .085.012.209.035.372h-2.468c0-.512.083-.977.248-1.396a3.079 3.079 0 011.764-1.78A3.65 3.65 0 0160.54 26c.485 0 .933.078 1.344.233.411.155.767.372 1.067.65.3.28.534.611.703.995.17.384.254.8.254 1.25 0 .48-.102.924-.306 1.331-.204.407-.528.824-.974 1.25l-1.442 1.36H64V35z" fill="#000" fill-rule="nonzero"/></g></symbol><symbol id="pdp-reviews" xmlns="http://www.w3.org/2000/svg" viewBox="0 0 89 65"><g fill="none" fill-rule="evenodd"><path d="M11.3 10.6a2.2 2.2 0 110-4.4 2.2 2.2 0 010 4.4zm7.1 0a2.2 2.2 0 110-4.4 2.2 2.2 0 010 4.4zm7 0a2.2 2.2 0 110-4.4 2.2 2.2 0 010 4.4zM17 60.5v3H5A4.5 4.5 0 01.5 59V5A4.5 4.5 0 015 .5h63A4.5 4.5 0 0172.5 5v12.5h-3V5A1.5 1.5 0 0068 3.5H5A1.5 1.5 0 003.5 5v54A1.5 1.5 0 005 60.5h12z" fill="#000" fill-rule="nonzero"/><path fill="#CD2323" d="M33 44l-4.702 2.472.898-5.236-3.804-3.708 5.257-.764L33 32l2.351 4.764 5.257.764-3.804 3.708.898 5.236zm18 0l-4.702 2.472.898-5.236-3.804-3.708 5.257-.764L51 32l2.351 4.764 5.257.764-3.804 3.708.898 5.236z"/><path stroke="#000" d="M69 44l-4.702 2.472.898-5.236-3.804-3.708 5.257-.764L69 32l2.351 4.764 5.257.764-3.804 3.708.898 5.236z"/></g></symbol><symbol id="pdp-share" xmlns="http://www.w3.org/2000/svg" viewBox="0 0 89 65"><g fill="none" fill-rule="evenodd"><path d="M11.3 10.6a2.2 2.2 0 110-4.4 2.2 2.2 0 010 4.4zm7.1 0a2.2 2.2 0 110-4.4 2.2 2.2 0 010 4.4zm7 0a2.2 2.2 0 110-4.4 2.2 2.2 0 010 4.4zM17 60.5v3H5A4.5 4.5 0 01.5 59V5A4.5 4.5 0 015 .5h63A4.5 4.5 0 0172.5 5v12.5h-3V5A1.5 1.5 0 0068 3.5H5A1.5 1.5 0 003.5 5v54A1.5 1.5 0 005 60.5h12z" fill="#000" fill-rule="nonzero"/><path d="M43 39c.628.836 1 1.874 1 3a4.978 4.978 0 01-1 3l10.535 5.747a5 5 0 118.93 4.507 5 5 0 01-8.93-4.507L43 45a5 5 0 110-6l10.535-5.747a5 5 0 108.93-4.507 5 5 0 00-8.93 4.507L43 39z" stroke="#CD2323" stroke-width="2" stroke-linecap="round" stroke-linejoin="round"/></g></symbol><symbol id="pdp-short-desc" xmlns="http://www.w3.org/2000/svg" viewBox="0 0 89 65"><g fill="none"><path d="M11.3 10.6a2.2 2.2 0 110-4.4 2.2 2.2 0 010 4.4zm7.1 0a2.2 2.2 0 110-4.4 2.2 2.2 0 010 4.4zm7 0a2.2 2.2 0 110-4.4 2.2 2.2 0 010 4.4zM17 60.5v3H5A4.5 4.5 0 01.5 59V5A4.5 4.5 0 015 .5h63A4.5 4.5 0 0172.5 5v12.5h-3V5A1.5 1.5 0 0068 3.5H5A1.5 1.5 0 003.5 5v54A1.5 1.5 0 005 60.5h12z" fill="#000"/><path d="M28 30h45a2 2 0 012 2v1a2 2 0 01-2 2H28a2 2 0 01-2-2v-1a2 2 0 012-2zm0 8h51a2 2 0 012 2v1a2 2 0 01-2 2H28a2 2 0 01-2-2v-1a2 2 0 012-2zm0 8h18a2 2 0 012 2v1a2 2 0 01-2 2H28a2 2 0 01-2-2v-1a2 2 0 012-2z" fill="#CD2323"/></g></symbol><symbol id="pdp-size-chart" xmlns="http://www.w3.org/2000/svg" viewBox="0 0 89 65"><g fill="none"><path d="M11.3 10.6a2.2 2.2 0 110-4.4 2.2 2.2 0 010 4.4zm7.1 0a2.2 2.2 0 110-4.4 2.2 2.2 0 010 4.4zm7 0a2.2 2.2 0 110-4.4 2.2 2.2 0 010 4.4zM17 60.5v3H5A4.5 4.5 0 01.5 59V5A4.5 4.5 0 015 .5h63A4.5 4.5 0 0172.5 5v12.5h-3V5A1.5 1.5 0 0068 3.5H5A1.5 1.5 0 003.5 5v54A1.5 1.5 0 005 60.5h12z" fill="#000"/><path d="M40 33v2H29a1 1 0 00-1 1v17a1 1 0 001 1h42a1 1 0 001-1V36a1 1 0 00-1-1h-3v-2h3a3 3 0 013 3v17a3 3 0 01-3 3H29a3 3 0 01-3-3V36a3 3 0 013-3h11z" fill="#CD2323"/><path d="M19.486 7.54A1.82 1.82 0 0018.2 7H1.831C.86 7 .031 7.769.003 8.708c-.029.484.171.94.514 1.28.343.342.8.542 1.285.542h4.743l.143 5.265-1.343 8.995a1.937 1.937 0 001.6 2.163c.085.029.2.029.285.029.4 0 .8-.142 1.114-.37.4-.313.686-.74.743-1.253l.914-6.09.915 6.119c.142 1.025 1.114 1.736 2.17 1.594 1.03-.142 1.743-1.11 1.6-2.163l-1.342-8.967.143-5.294h4.685c.971 0 1.8-.769 1.828-1.708 0-.484-.171-.94-.514-1.31zm-1.314 2.08H13.03a.45.45 0 00-.458.455l-.142 5.807v.085l1.342 9.023c.086.513-.285 1.025-.8 1.082-.514.085-1.028-.285-1.085-.797l-1.343-8.966c-.028-.256-.257-.427-.514-.427-.229 0-.486.2-.514.427l-1.343 8.966a.898.898 0 01-.371.626c-.2.143-.457.228-.715.171-.514-.085-.885-.57-.8-1.082l1.343-9.051v-.086l-.171-5.778a.469.469 0 00-.457-.455H1.774a.824.824 0 01-.6-.256c-.171-.171-.229-.37-.229-.598 0-.456.4-.797.886-.797h16.398c.228 0 .428.085.6.256.171.17.228.37.228.598a.876.876 0 01-.885.797zM9.5 6C11.423 6 13 4.655 13 3.013 13 1.373 11.423 0 9.5 0S6 1.345 6 2.987C6 4.627 7.577 6 9.5 6zm0-5.112c1.356 0 2.46.942 2.46 2.099 0 1.156-1.104 2.098-2.46 2.098-1.356 0-2.46-.942-2.46-2.098 0-1.157 1.104-2.1 2.46-2.1z" transform="translate(44 19)" fill="#000"/></g></symbol><symbol id="pdp-sku" xmlns="http://www.w3.org/2000/svg" viewBox="0 0 89 65"><g fill="none"><path d="M11.3 10.6a2.2 2.2 0 110-4.4 2.2 2.2 0 010 4.4zm7.1 0a2.2 2.2 0 110-4.4 2.2 2.2 0 010 4.4zm7 0a2.2 2.2 0 110-4.4 2.2 2.2 0 010 4.4zM17 60.5v3H5A4.5 4.5 0 01.5 59V5A4.5 4.5 0 015 .5h63A4.5 4.5 0 0172.5 5v12.5h-3V5A1.5 1.5 0 0068 3.5H5A1.5 1.5 0 003.5 5v54A1.5 1.5 0 005 60.5h12z" fill="#000"/><path d="M43 56h-2V32h2v24zm4-24h-2v20h2V32zm5 0h-2v20h2V32zm10 0h-2v20h2V32zm-7 0h-2v24h2V32zm4 0h-2v20h2V32zm8 0h-2v24h2V32z" fill="#CD2323"/></g></symbol><symbol id="pdp-summary-tabs-acc" xmlns="http://www.w3.org/2000/svg" viewBox="0 0 89 65"><g fill="none"><path d="M11.3 10.6a2.2 2.2 0 110-4.4 2.2 2.2 0 010 4.4zm7.1 0a2.2 2.2 0 110-4.4 2.2 2.2 0 010 4.4zm7 0a2.2 2.2 0 110-4.4 2.2 2.2 0 010 4.4zM17 60.5v3H5A4.5 4.5 0 01.5 59V5A4.5 4.5 0 015 .5h63A4.5 4.5 0 0172.5 5v12.5h-3V5A1.5 1.5 0 0068 3.5H5A1.5 1.5 0 003.5 5v54A1.5 1.5 0 005 60.5h12z" fill="#000"/><path d="M26 35h37a2 2 0 012 2v2a2 2 0 01-2 2H26a2 2 0 01-2-2v-2a2 2 0 012-2zm0 11h37a2 2 0 012 2v2a2 2 0 01-2 2H26a2 2 0 01-2-2v-2a2 2 0 012-2z" fill="#CD2323"/><path fill="#000" d="M71 37.045h3.05V34h1.914v3.045H79v1.91h-3.036V42H74.05v-3.045H71zm0 11h3.05V45h1.914v3.045H79v1.91h-3.036V53H74.05v-3.045H71z"/></g></symbol><symbol id="pdp-tab-block" xmlns="http://www.w3.org/2000/svg" viewBox="0 0 89 65"><g fill="none"><path d="M11.3 10.6a2.2 2.2 0 110-4.4 2.2 2.2 0 010 4.4zm7.1 0a2.2 2.2 0 110-4.4 2.2 2.2 0 010 4.4zm7 0a2.2 2.2 0 110-4.4 2.2 2.2 0 010 4.4zM17 60.5v3H5A4.5 4.5 0 01.5 59V5A4.5 4.5 0 015 .5h63A4.5 4.5 0 0172.5 5v12.5h-3V5A1.5 1.5 0 0068 3.5H5A1.5 1.5 0 003.5 5v54A1.5 1.5 0 005 60.5h12z" fill="#000"/><path d="M20 32h13a2 2 0 012 2v14a2 2 0 01-2 2H20a2 2 0 01-2-2V34a2 2 0 012-2z" fill="#CD2323"/><path d="M41 32h13a2 2 0 012 2v14a2 2 0 01-2 2H41a2 2 0 01-2-2V34a2 2 0 012-2zm21 0h13a2 2 0 012 2v14a2 2 0 01-2 2H62a2 2 0 01-2-2V34a2 2 0 012-2z" fill-opacity=".2" fill="#CD2323"/></g></symbol><symbol id="pdp-tabs-blocks" xmlns="http://www.w3.org/2000/svg" viewBox="0 0 89 65"><g fill="none"><path d="M11.3 10.6a2.2 2.2 0 110-4.4 2.2 2.2 0 010 4.4zm7.1 0a2.2 2.2 0 110-4.4 2.2 2.2 0 010 4.4zm7 0a2.2 2.2 0 110-4.4 2.2 2.2 0 010 4.4zM17 60.5v3H5A4.5 4.5 0 01.5 59V5A4.5 4.5 0 015 .5h63A4.5 4.5 0 0172.5 5v12.5h-3V5A1.5 1.5 0 0068 3.5H5A1.5 1.5 0 003.5 5v54A1.5 1.5 0 005 60.5h12z" fill="#000"/><path d="M27 29h12a2 2 0 012 2v2a2 2 0 01-2 2H27a2 2 0 01-2-2v-2a2 2 0 012-2zm0 13h46a2 2 0 110 4H27a2 2 0 110-4zm0 8h19a2 2 0 110 4H27a2 2 0 110-4z" fill="#CD2323"/><path d="M47 29h12a2 2 0 012 2v2a2 2 0 01-2 2H47a2 2 0 01-2-2v-2a2 2 0 012-2zm20 0h12a2 2 0 012 2v2a2 2 0 01-2 2H67a2 2 0 01-2-2v-2a2 2 0 012-2z" fill-opacity=".2" fill="#CD2323"/></g></symbol><symbol id="pdp-tags" xmlns="http://www.w3.org/2000/svg" viewBox="0 0 89 65"><g fill="none"><path d="M66.017 35.199l-10.99-10.797C52.767 22.204 49.779 21 46.6 21c-3.179 0-6.168 1.204-8.415 3.389a11.383 11.383 0 00-3.446 8.78A11.244 11.244 0 0033 39.171c0 3.09 1.24 5.994 3.487 8.179l5.19 4.93 5.92 5.75A3.43 3.43 0 0050 59c.87 0 1.74-.322 2.404-.968l11.9-11.565a3.237 3.237 0 00.013-4.66l-.158-.155 1.845-1.794a3.237 3.237 0 00.013-4.66zM50 55.696l-5.947-5.778-5.163-4.904a8.094 8.094 0 010-11.68 8.595 8.595 0 016.01-2.421c2.174 0 4.35.806 6.01 2.42L61.9 44.13 50 55.696zm3.327-24.685c-2.26-2.198-5.248-3.402-8.427-3.402-2.17 0-4.245.573-6.06 1.622a8.142 8.142 0 011.75-2.508 8.6 8.6 0 016.01-2.419c2.174 0 4.35.807 6.01 2.42L63.6 37.523l-1.833 1.78-8.44-8.291z" fill="#CD2323"/><path d="M44.5 36.6c1.494 0 2.7 1.075 2.7 2.402 0 1.328-1.206 2.398-2.7 2.398-1.494 0-2.7-1.07-2.7-2.398 0-1.327 1.206-2.402 2.7-2.402zm0-1.6c-2.48 0-4.5 1.795-4.5 4.002C40 41.206 42.02 43 44.5 43s4.5-1.794 4.5-3.998C49 36.795 46.98 35 44.5 35z" fill="#000"/><path d="M11.3 10.6a2.2 2.2 0 110-4.4 2.2 2.2 0 010 4.4zm7.1 0a2.2 2.2 0 110-4.4 2.2 2.2 0 010 4.4zm7 0a2.2 2.2 0 110-4.4 2.2 2.2 0 010 4.4zM17 60.5v3H5A4.5 4.5 0 01.5 59V5A4.5 4.5 0 015 .5h63A4.5 4.5 0 0172.5 5v12.5h-3V5A1.5 1.5 0 0068 3.5H5A1.5 1.5 0 003.5 5v54A1.5 1.5 0 005 60.5h12z" fill="#000"/></g></symbol><symbol id="pdp-title" xmlns="http://www.w3.org/2000/svg" viewBox="0 0 89 65"><g fill="none"><path d="M11.3 10.6a2.2 2.2 0 110-4.4 2.2 2.2 0 010 4.4zm7.1 0a2.2 2.2 0 110-4.4 2.2 2.2 0 010 4.4zm7 0a2.2 2.2 0 110-4.4 2.2 2.2 0 010 4.4zM17 60.5v3H5A4.5 4.5 0 01.5 59V5A4.5 4.5 0 015 .5h63A4.5 4.5 0 0172.5 5v12.5h-3V5A1.5 1.5 0 0068 3.5H5A1.5 1.5 0 003.5 5v54A1.5 1.5 0 005 60.5h12z" fill="#000"/><path d="M42 34h32a2 2 0 110 4H42a2 2 0 110-4zm0 8h13a2 2 0 110 4H42a2 2 0 110-4z" fill="#CD2323"/><path fill="#000" d="M29.187 32.284V51h-6.054V32.284H18.16V27h16v5.284z"/></g></symbol><symbol id="pdp-upsells" xmlns="http://www.w3.org/2000/svg" viewBox="0 0 89 65"><g fill="none"><path d="M11.3 10.6a2.2 2.2 0 110-4.4 2.2 2.2 0 010 4.4zm7.1 0a2.2 2.2 0 110-4.4 2.2 2.2 0 010 4.4zm7 0a2.2 2.2 0 110-4.4 2.2 2.2 0 010 4.4zM17 60.5v3H5A4.5 4.5 0 01.5 59V5A4.5 4.5 0 015 .5h63A4.5 4.5 0 0172.5 5v12.5h-3V5A1.5 1.5 0 0068 3.5H5A1.5 1.5 0 003.5 5v54A1.5 1.5 0 005 60.5h12z" fill="#000"/><path d="M24 28h12a2 2 0 012 2v23a2 2 0 01-2 2H24a2 2 0 01-2-2V30a2 2 0 012-2zm21 0h12a2 2 0 012 2v23a2 2 0 01-2 2H45a2 2 0 01-2-2V30a2 2 0 012-2z" stroke="#CD2323" stroke-width="2"/><path fill="#000" d="M69.727 40.314h-4.125l5.5-5.804 5.5 5.804h-4.125V50.51h-2.75zM29 48a1 1 0 110-2 1 1 0 010 2zm3 0a1 1 0 110-2 1 1 0 010 2zm2.8-7.1c.2.3.25.6.15.9l-1 2.5c-.15.4-.5.7-.95.7h-5c-.5 0-.9-.3-1-.8l-.85-4.2H26c-.55 0-1-.45-1-1s.45-1 1-1h1c.5 0 .9.35 1 .8l.3 1.7H34c.3 0 .6.15.8.4zM50 48a1 1 0 110-2 1 1 0 010 2zm3 0a1 1 0 110-2 1 1 0 010 2zm2.8-7.1c.2.3.25.6.15.9l-1 2.5c-.15.4-.5.7-.95.7h-5c-.5 0-.9-.3-1-.8l-.85-4.2H47c-.55 0-1-.45-1-1s.45-1 1-1h1c.5 0 .9.35 1 .8l.3 1.7H55c.3 0 .6.15.8.4z"/></g></symbol><symbol id="pdp-video-link" xmlns="http://www.w3.org/2000/svg" viewBox="0 0 89 65"><g fill="none"><path d="M11.3 10.6a2.2 2.2 0 110-4.4 2.2 2.2 0 010 4.4zm7.1 0a2.2 2.2 0 110-4.4 2.2 2.2 0 010 4.4zm7 0a2.2 2.2 0 110-4.4 2.2 2.2 0 010 4.4zM17 60.5v3H5A4.5 4.5 0 01.5 59V5A4.5 4.5 0 015 .5h63A4.5 4.5 0 0172.5 5v12.5h-3V5A1.5 1.5 0 0068 3.5H5A1.5 1.5 0 003.5 5v54A1.5 1.5 0 005 60.5h12z" fill="#000"/><path d="M40 33v2H29a1 1 0 00-1 1v17a1 1 0 001 1h42a1 1 0 001-1V36a1 1 0 00-1-1h-3v-2h3a3 3 0 013 3v17a3 3 0 01-3 3H29a3 3 0 01-3-3V36a3 3 0 013-3h11z" fill="#CD2323"/><path d="M60.528 36.038l-12.18-6.905A.952.952 0 0047.87 29c-.477 0-.867.375-.867.833H47v14.334h.004c0 .458.39.833.867.833.179 0 .328-.058.49-.142l12.167-6.895c.288-.23.472-.575.472-.963s-.184-.73-.472-.962z" fill="#000"/></g></symbol><symbol id="pdp-wishlist" xmlns="http://www.w3.org/2000/svg" viewBox="0 0 89 65"><g fill="none" fill-rule="evenodd"><path d="M11.3 10.6a2.2 2.2 0 110-4.4 2.2 2.2 0 010 4.4zm7.1 0a2.2 2.2 0 110-4.4 2.2 2.2 0 010 4.4zm7 0a2.2 2.2 0 110-4.4 2.2 2.2 0 010 4.4zM17 60.5v3H5A4.5 4.5 0 01.5 59V5A4.5 4.5 0 015 .5h63A4.5 4.5 0 0172.5 5v12.5h-3V5A1.5 1.5 0 0068 3.5H5A1.5 1.5 0 003.5 5v54A1.5 1.5 0 005 60.5h12z" fill="#000" fill-rule="nonzero"/><path d="M40 33v2H29a1 1 0 00-1 1v17a1 1 0 001 1h42a1 1 0 001-1V36a1 1 0 00-1-1h-3v-2h3a3 3 0 013 3v17a3 3 0 01-3 3H29a3 3 0 01-3-3V36a3 3 0 013-3h11z" fill="#000" fill-rule="nonzero"/><path d="M61.141 30.556a4.447 4.447 0 00-3.164-1.326 4.447 4.447 0 00-3.163 1.326l-.862.872-.862-.872a4.438 4.438 0 00-6.328 0 4.563 4.563 0 000 6.401l.862.872 6.328 6.401 6.327-6.4.862-.873c.84-.849 1.31-2 1.31-3.2 0-1.2-.47-2.352-1.31-3.2z" stroke="#CD2323" stroke-width="2" stroke-linecap="round" stroke-linejoin="round"/></g></symbol><symbol id="loop-title" xmlns="http://www.w3.org/2000/svg" viewBox="0 0 89 65"><path d="M11.3 10.6a2.2 2.2 0 110-4.4 2.2 2.2 0 010 4.4zm7.1 0a2.2 2.2 0 110-4.4 2.2 2.2 0 010 4.4zm7 0a2.2 2.2 0 110-4.4 2.2 2.2 0 010 4.4zM17 60.5v3H5A4.5 4.5 0 01.5 59V5A4.5 4.5 0 015 .5h63A4.5 4.5 0 0172.5 5v12.5h-3V5A1.5 1.5 0 0068 3.5H5A1.5 1.5 0 003.5 5v54A1.5 1.5 0 005 60.5h12z"/><path d="M25 32h32a2 2 0 110 4H25a2 2 0 110-4z" fill-opacity=".2" fill="#CD2323"/><path d="M25 23h22a2 2 0 110 4H25a2 2 0 110-4z" fill="#CD2323" opacity=".2"/><rect fill="#CD2323" x="23" y="23" width="26" height="4" rx="2"/><path d="M25 38h13a2 2 0 110 4H25a2 2 0 110-4z" fill-opacity=".2" fill="#CD2323"/><path d="M26 51h10a3 3 0 013 3v1a3 3 0 01-3 3H26a3 3 0 01-3-3v-1a3 3 0 013-3zm22 0h10a3 3 0 013 3v1a3 3 0 01-3 3H48a3 3 0 01-3-3v-1a3 3 0 013-3zm22 0h10a3 3 0 013 3v1a3 3 0 01-3 3H70a3 3 0 01-3-3v-1a3 3 0 013-3z" fill-opacity=".2"/></symbol><symbol id="loop-description" xmlns="http://www.w3.org/2000/svg" viewBox="0 0 89 65"><path d="M11.3 10.6a2.2 2.2 0 110-4.4 2.2 2.2 0 010 4.4zm7.1 0a2.2 2.2 0 110-4.4 2.2 2.2 0 010 4.4zm7 0a2.2 2.2 0 110-4.4 2.2 2.2 0 010 4.4zM17 60.5v3H5A4.5 4.5 0 01.5 59V5A4.5 4.5 0 015 .5h63A4.5 4.5 0 0172.5 5v12.5h-3V5A1.5 1.5 0 0068 3.5H5A1.5 1.5 0 003.5 5v54A1.5 1.5 0 005 60.5h12z"/><path d="M25 32h32a2 2 0 110 4H25a2 2 0 110-4z" fill="#CD2323"/><path d="M25 23h22a2 2 0 110 4H25a2 2 0 110-4z" fill="#CD2323" opacity=".2"/><path d="M25 38h13a2 2 0 110 4H25a2 2 0 110-4z" fill="#CD2323"/><path d="M25 51h12a2 2 0 012 2v3a2 2 0 01-2 2H25a2 2 0 01-2-2v-3a2 2 0 012-2zm22 0h12a2 2 0 012 2v3a2 2 0 01-2 2H47a2 2 0 01-2-2v-3a2 2 0 012-2zm22 0h12a2 2 0 012 2v3a2 2 0 01-2 2H69a2 2 0 01-2-2v-3a2 2 0 012-2z" fill-opacity=".2"/></symbol><symbol id="loop-products" xmlns="http://www.w3.org/2000/svg" viewBox="0 0 89 65"><g fill="none"><path d="M11.3 10.6a2.2 2.2 0 110-4.4 2.2 2.2 0 010 4.4zm7.1 0a2.2 2.2 0 110-4.4 2.2 2.2 0 010 4.4zm7 0a2.2 2.2 0 110-4.4 2.2 2.2 0 010 4.4zM17 60.5v3H5A4.5 4.5 0 01.5 59V5A4.5 4.5 0 015 .5h63A4.5 4.5 0 0172.5 5v12.5h-3V5A1.5 1.5 0 0068 3.5H5A1.5 1.5 0 003.5 5v54A1.5 1.5 0 005 60.5h12z" fill="#000"/><path d="M25 29v2h-2a1 1 0 00-1 1v23a1 1 0 001 1h12a1 1 0 001-1v-7h2v7a3 3 0 01-3 3H23a3 3 0 01-3-3V32a3 3 0 013-3h2zm30 0h1a3 3 0 013 3v23a3 3 0 01-3 3H44a3 3 0 01-3-3v-7h2v7a1 1 0 001 1h12a1 1 0 001-1V32a1 1 0 00-1-1h-1v-2z" fill="#CD2323"/><path d="M65 30h12a2 2 0 012 2v23a2 2 0 01-2 2H65a2 2 0 01-2-2V32a2 2 0 012-2z" stroke="#CD2323" stroke-width="2"/><path d="M36.5 45a2.5 2.5 0 110-5 2.5 2.5 0 010 5zm8 0a2.5 2.5 0 110-5 2.5 2.5 0 010 5zm6.98-18.543c.52.772.65 1.543.39 2.314l-2.6 6.429c-.39 1.029-1.3 1.8-2.47 1.8h-13c-1.3 0-2.34-.771-2.6-2.057l-2.21-10.8h-.39c-1.43 0-2.6-1.157-2.6-2.572C26 20.157 27.17 19 28.6 19h2.6c1.3 0 2.34.9 2.6 2.057l.78 4.372H49.4c.78 0 1.56.385 2.08 1.028z" fill="#000"/></g></symbol><symbol id="acf-button" xmlns="http://www.w3.org/2000/svg" viewBox="0 0 89 65"><g fill="none"><path d="M34 35v2H23a1 1 0 00-1 1v17a1 1 0 001 1h42a1 1 0 001-1V38a1 1 0 00-1-1h-3v-2h3a3 3 0 013 3v17a3 3 0 01-3 3H23a3 3 0 01-3-3V38a3 3 0 013-3h11z" id="Combined-Shape" fill="#CD2323"/><path d="M53.809 41.895c.197.19.242.407.134.654-.109.253-.296.38-.563.38h-3.645l1.918 4.515a.616.616 0 01-.324.797l-1.69.712a.6.6 0 01-.467 0 .616.616 0 01-.333-.323l-1.823-4.288-2.976 2.96a.588.588 0 01-.658.133c-.255-.108-.382-.294-.382-.56V32.607c0-.265.127-.452.382-.56a.594.594 0 01.658.133l9.769 9.715z" id="Path" fill="#000"/><path d="M33.532 20.87l-2.288-6.526-2.288 6.526h4.576zm1.352 3.874h-7.28l-1.17 3.406H21l7.462-19.604h5.564l7.462 19.604h-5.434l-1.17-3.406zm20.43-9.646c-1.179-1.439-2.635-2.158-4.368-2.158-.763 0-1.469.139-2.119.416a5.156 5.156 0 00-1.677 1.131 5.208 5.208 0 00-1.105 1.703 5.59 5.59 0 00-.403 2.132c0 .78.134 1.5.403 2.158a5.25 5.25 0 001.118 1.716 5.24 5.24 0 001.677 1.144 5.184 5.184 0 002.08.416c1.63 0 3.094-.693 4.394-2.08v6.032l-.52.182c-.78.277-1.508.481-2.184.611a10.58 10.58 0 01-2.002.195c-1.352 0-2.648-.256-3.887-.767a10.164 10.164 0 01-3.276-2.158 10.736 10.736 0 01-2.275-3.302c-.572-1.274-.858-2.665-.858-4.173s.282-2.89.845-4.147a10.321 10.321 0 012.262-3.25 10.36 10.36 0 013.289-2.132A10.256 10.256 0 0150.634 8c.78 0 1.547.082 2.301.247.754.165 1.547.42 2.379.767v6.084zm12.656-2.236h-6.136v3.276h5.59v4.316h-5.59v7.696h-5.096V8.546H67.97v4.316z" fill="#000"/></g></symbol><symbol id="acf-heading" xmlns="http://www.w3.org/2000/svg" viewBox="0 0 89 65"><g fill="none" fill-rule="evenodd"><rect fill="#CD2323" x="27" y="36" width="35" height="3" rx="1.5"/><rect fill="#CD2323" x="34" y="42" width="21" height="3" rx="1.5"/><rect fill-opacity=".3" fill="#CD2323" x="24" y="49" width="41" height="2" rx="1"/><rect fill-opacity=".3" fill="#CD2323" x="24" y="53" width="41" height="2" rx="1"/><rect fill-opacity=".3" fill="#CD2323" x="27" y="57" width="35" height="2" rx="1"/><path d="M33.532 22.87l-2.288-6.526-2.288 6.526h4.576zm1.352 3.874h-7.28l-1.17 3.406H21l7.462-19.604h5.564l7.462 19.604h-5.434l-1.17-3.406zm20.43-9.646c-1.179-1.439-2.635-2.158-4.368-2.158-.763 0-1.469.139-2.119.416a5.156 5.156 0 00-1.677 1.131 5.208 5.208 0 00-1.105 1.703 5.59 5.59 0 00-.403 2.132c0 .78.134 1.5.403 2.158a5.25 5.25 0 001.118 1.716 5.24 5.24 0 001.677 1.144 5.184 5.184 0 002.08.416c1.63 0 3.094-.693 4.394-2.08v6.032l-.52.182c-.78.277-1.508.481-2.184.611a10.58 10.58 0 01-2.002.195c-1.352 0-2.648-.256-3.887-.767a10.164 10.164 0 01-3.276-2.158 10.736 10.736 0 01-2.275-3.302c-.572-1.274-.858-2.665-.858-4.173s.282-2.89.845-4.147a10.321 10.321 0 012.262-3.25 10.36 10.36 0 013.289-2.132A10.256 10.256 0 0150.634 10c.78 0 1.547.082 2.301.247.754.165 1.547.42 2.379.767v6.084zm12.656-2.236h-6.136v3.276h5.59v4.316h-5.59v7.696h-5.096V10.546H67.97v4.316z" fill="#000" fill-rule="nonzero"/></g></symbol><symbol id="acf-image" xmlns="http://www.w3.org/2000/svg" viewBox="0 0 89 65"><g fill="none"><path d="M33.532 22.87l-2.288-6.526-2.288 6.526h4.576zm1.352 3.874h-7.28l-1.17 3.406H21l7.462-19.604h5.564l7.462 19.604h-5.434l-1.17-3.406zm20.43-9.646c-1.179-1.439-2.635-2.158-4.368-2.158-.763 0-1.469.139-2.119.416a5.156 5.156 0 00-1.677 1.131 5.208 5.208 0 00-1.105 1.703 5.59 5.59 0 00-.403 2.132c0 .78.134 1.5.403 2.158a5.25 5.25 0 001.118 1.716 5.24 5.24 0 001.677 1.144 5.184 5.184 0 002.08.416c1.63 0 3.094-.693 4.394-2.08v6.032l-.52.182c-.78.277-1.508.481-2.184.611a10.58 10.58 0 01-2.002.195c-1.352 0-2.648-.256-3.887-.767a10.164 10.164 0 01-3.276-2.158 10.736 10.736 0 01-2.275-3.302c-.572-1.274-.858-2.665-.858-4.173s.282-2.89.845-4.147a10.321 10.321 0 012.262-3.25 10.36 10.36 0 013.289-2.132A10.256 10.256 0 0150.634 10c.78 0 1.547.082 2.301.247.754.165 1.547.42 2.379.767v6.084zm12.656-2.236h-6.136v3.276h5.59v4.316h-5.59v7.696h-5.096V10.546H67.97v4.316z" fill="#000"/><path d="M36.82 41.027c0-1.155-.94-2.091-2.1-2.091a2.094 2.094 0 00-2.098 2.09c0 1.155.94 2.092 2.098 2.092 1.16 0 2.1-.936 2.1-2.091zM32.013 54.07s-.02.027-.05.073h25.072l-.005-.008-8.558-11.548s-1.014-1.368-2.028 0l-5.295 7.147-1.948-2.63s-1.015-1.369-2.028 0l-5.16 6.966zm25.87.819H31.116V37.11h26.77v17.78zm1.116.555V36.556a.557.557 0 00-.557-.556H30.558a.557.557 0 00-.558.556v18.888c0 .307.25.556.558.556h27.885a.557.557 0 00.557-.556z" fill="#CD2323"/></g></symbol><symbol id="acf-text" xmlns="http://www.w3.org/2000/svg" viewBox="0 0 89 65"><g fill="none" fill-rule="evenodd"><rect fill="#CD2323" x="27" y="36" width="35" height="3" rx="1.5"/><rect fill="#CD2323" x="27" y="42" width="35" height="3" rx="1.5"/><rect fill="#CD2323" x="37.5" y="48" width="14" height="3" rx="1.5"/><path d="M33.532 22.87l-2.288-6.526-2.288 6.526h4.576zm1.352 3.874h-7.28l-1.17 3.406H21l7.462-19.604h5.564l7.462 19.604h-5.434l-1.17-3.406zm20.43-9.646c-1.179-1.439-2.635-2.158-4.368-2.158-.763 0-1.469.139-2.119.416a5.156 5.156 0 00-1.677 1.131 5.208 5.208 0 00-1.105 1.703 5.59 5.59 0 00-.403 2.132c0 .78.134 1.5.403 2.158a5.25 5.25 0 001.118 1.716 5.24 5.24 0 001.677 1.144 5.184 5.184 0 002.08.416c1.63 0 3.094-.693 4.394-2.08v6.032l-.52.182c-.78.277-1.508.481-2.184.611a10.58 10.58 0 01-2.002.195c-1.352 0-2.648-.256-3.887-.767a10.164 10.164 0 01-3.276-2.158 10.736 10.736 0 01-2.275-3.302c-.572-1.274-.858-2.665-.858-4.173s.282-2.89.845-4.147a10.321 10.321 0 012.262-3.25 10.36 10.36 0 013.289-2.132A10.256 10.256 0 0150.634 10c.78 0 1.547.082 2.301.247.754.165 1.547.42 2.379.767v6.084zm12.656-2.236h-6.136v3.276h5.59v4.316h-5.59v7.696h-5.096V10.546H67.97v4.316z" fill="#000" fill-rule="nonzero"/></g></symbol><symbol id="pdp-description" xmlns="http://www.w3.org/2000/svg" viewBox="0 0 89 65"><path d="M11.3 10.6a2.2 2.2 0 110-4.4 2.2 2.2 0 010 4.4zm7.1 0a2.2 2.2 0 110-4.4 2.2 2.2 0 010 4.4zm7 0a2.2 2.2 0 110-4.4 2.2 2.2 0 010 4.4zM17 60.5v3H5A4.5 4.5 0 01.5 59V5A4.5 4.5 0 015 .5h63A4.5 4.5 0 0172.5 5v12.5h-3V5A1.5 1.5 0 0068 3.5H5A1.5 1.5 0 003.5 5v54A1.5 1.5 0 005 60.5h12z"/><path d="M28.245 35h50.51c1.24 0 2.245.716 2.245 1.6v.8c0 .884-1.005 1.6-2.245 1.6h-50.51C27.005 39 26 38.284 26 37.4v-.8c0-.884 1.005-1.6 2.245-1.6zm0-6h50.51c1.24 0 2.245.716 2.245 1.6v.8c0 .884-1.005 1.6-2.245 1.6h-50.51C27.005 33 26 32.284 26 31.4v-.8c0-.884 1.005-1.6 2.245-1.6zM28 41h51c1.105 0 2 .716 2 1.6v.8c0 .884-.895 1.6-2 1.6H28c-1.105 0-2-.716-2-1.6v-.8c0-.884.895-1.6 2-1.6zm0 6h18c1.105 0 2 .716 2 1.6v.8c0 .884-.895 1.6-2 1.6H28c-1.105 0-2-.716-2-1.6v-.8c0-.884.895-1.6 2-1.6z"/></symbol></svg>